<?xml version="1.0" encoding="UTF-8"?>
<svg version="1.1" xmlns="http://www.w3.org/2000/svg" width="348" height="361">
<path d="M0 0 C1.27678116 -0.01265396 2.55356232 -0.02530792 3.86903381 -0.03834534 C5.28731176 -0.02702776 6.7055857 -0.01520021 8.12385559 -0.00291443 C9.61556856 -0.00805216 11.10727546 -0.01533234 12.59896851 -0.02459717 C16.65781415 -0.04315934 20.71600523 -0.03013443 24.7748239 -0.01050687 C29.03280253 0.00588099 33.29073968 -0.00293528 37.54873657 -0.00802612 C44.71385622 -0.01255333 51.87871544 0.00334564 59.04377747 0.03126526 C67.29213732 0.06316131 75.54002329 0.06336548 83.78841609 0.04605049 C91.74674279 0.03008791 99.70489814 0.03699129 107.66321754 0.0539875 C111.03562881 0.06080704 114.40790062 0.05987804 117.78030968 0.05244255 C121.77367902 0.04468358 125.7665218 0.05721282 129.75980186 0.08429146 C131.21243224 0.09108319 132.66511271 0.09137461 134.11774063 0.08407593 C155.68569938 -0.01165783 175.45017997 6.87889429 191.29890442 21.90162659 C206.24662678 37.66560683 214.90046692 57.90004851 214.90046692 79.62818909 C213.37137874 102.66007975 204.06421361 122.6988513 187.02546692 138.19068909 C186.14117004 138.95510315 185.25687317 139.71951721 184.34577942 140.50709534 C182.0919956 142.46205478 179.98244842 144.49294759 177.90046692 146.62818909 C178.59784973 146.8511969 179.29523254 147.07420471 180.01374817 147.30397034 C194.57635836 153.98424754 204.68267141 171.01771007 210.12556458 185.4221344 C217.54915227 206.1862653 215.33836722 227.06368153 206.36921692 247.03834534 C197.24595026 265.09122441 182.6596314 278.20597033 163.90046692 285.62818909 C153.17114139 289.06188963 143.08756165 290.20129354 131.85554504 290.08229065 C130.32611115 290.08115844 128.79667508 290.0818033 127.26724243 290.08406067 C123.1710156 290.08519419 119.07527077 290.06190968 114.97915459 290.03376484 C110.67776398 290.00852025 106.37635865 290.00639122 102.0749054 290.00166321 C93.95445199 289.98930043 85.83421761 289.95657095 77.71386003 289.91626525 C68.4585571 289.87133721 59.20324294 289.84950797 49.94785786 289.82948351 C30.93193736 289.78783122 11.91621984 289.71761155 -7.09953308 289.62818909 C-8.65582937 286.16466984 -9.35011049 283.46059257 -9.35400867 279.6696701 C-9.35984087 278.69093099 -9.36567306 277.71219188 -9.37168199 276.703794 C-9.36790266 275.63619423 -9.36412334 274.56859447 -9.36022949 273.46864319 C-9.36405504 272.32858778 -9.36788059 271.18853238 -9.37182206 270.01392984 C-9.38215894 266.18543319 -9.37815856 262.35708632 -9.37419128 258.52857971 C-9.3774433 255.78721685 -9.38365546 253.04586238 -9.38967896 250.30450439 C-9.40243064 243.62655793 -9.40421911 236.94865167 -9.40187869 230.27069509 C-9.40009611 224.84369736 -9.40184388 219.41671184 -9.40610313 213.98971558 C-9.40669832 213.21751085 -9.40729351 212.44530613 -9.40790674 211.64970127 C-9.40911848 210.08101459 -9.41033261 208.51232792 -9.41154911 206.94364125 C-9.42242619 192.23178816 -9.4202612 177.519958 -9.41416427 162.80810362 C-9.40899339 149.3452291 -9.42025474 135.8824269 -9.43926249 122.41956669 C-9.45862696 108.59819573 -9.46689943 94.776859 -9.46313924 80.95547438 C-9.46122527 73.19485055 -9.4637338 65.43428831 -9.47785378 57.67367554 C-9.48975075 51.06800371 -9.49119136 44.46243139 -9.47906361 37.85675824 C-9.47316331 34.48595398 -9.47372585 31.11548152 -9.48406601 27.74466515 C-9.49446452 24.09218451 -9.48648792 20.44019743 -9.47375488 16.78773499 C-9.48112917 15.72013522 -9.48850345 14.65253545 -9.4961012 13.55258417 C-9.43812197 5.6782758 -9.20223966 0.0048515 0 0 Z M14.90046692 22.62818909 C10.57600068 35.6015878 21.95530563 57.97033475 27.73591614 69.62745667 C42.49928056 97.9700176 68.72697694 118.42696693 98.71296692 128.56568909 C99.54771545 128.84823547 100.38246399 129.13078186 101.24250793 129.42189026 C112.07029066 132.8839355 122.69381167 133.97405674 134.02546692 133.94068909 C135.67868958 133.96485901 135.67868958 133.96485901 137.36531067 133.98951721 C144.3944399 133.99368633 150.31745831 133.09352968 156.90046692 130.62818909 C157.80538879 130.29818909 158.71031067 129.96818909 159.64265442 129.62818909 C170.3227589 124.62066757 179.18566061 115.89190477 184.90046692 105.62818909 C185.27558411 105.00815002 185.65070129 104.38811096 186.03718567 103.74928284 C192.44952068 92.33103573 193.53637724 78.32796474 190.83796692 65.69068909 C186.16147117 49.22507381 177.11957164 38.0093678 163.11140442 28.63600159 C148.43424957 21.00960162 132.4036375 22.08945277 116.33070493 22.22261333 C112.75535244 22.24790116 109.17998134 22.24999026 105.60455322 22.25471497 C98.85818433 22.26706541 92.11207987 22.2997774 85.36582655 22.34011292 C77.67521518 22.38508028 69.98459008 22.40687991 62.29387963 22.42689466 C46.49592314 22.46851886 30.69822935 22.53871342 14.90046692 22.62818909 Z M15.90046692 93.62818909 C19.12299299 107.77661309 27.40511553 118.5045381 39.40046692 126.44068909 C43.80119051 129.11168382 47.94679678 131.21285476 52.90046692 132.62818909 C53.89046692 132.29818909 54.88046692 131.96818909 55.90046692 131.62818909 C55.29460754 131.15510315 54.68874817 130.68201721 54.06452942 130.19459534 C48.46925318 125.77863117 43.134338 121.18903035 37.93171692 116.31568909 C36.08419741 114.41518252 36.08419741 114.41518252 33.90046692 114.62818909 C33.63492004 114.03264221 33.36937317 113.43709534 33.09577942 112.82350159 C31.86600443 110.56489524 30.65272639 109.24074553 28.77546692 107.50318909 C24.95336624 103.817592 21.74284514 99.76764041 18.50202942 95.56959534 C17.70925598 94.60859924 17.70925598 94.60859924 16.90046692 93.62818909 C16.57046692 93.62818909 16.24046692 93.62818909 15.90046692 93.62818909 Z M12.90046692 134.62818909 C12.90046692 141.88818909 12.90046692 149.14818909 12.90046692 156.62818909 C16.66951093 154.74366708 19.82868915 152.54617685 23.15046692 150.00318909 C23.70476379 149.58295471 24.25906067 149.16272034 24.83015442 148.72975159 C26.18913355 147.6988019 27.54510527 146.66388997 28.90046692 145.62818909 C26.36401778 143.01813763 23.79859683 140.64258857 20.90046692 138.44068909 C20.24046692 137.9315094 19.58046692 137.42232971 18.90046692 136.89772034 C16.70332565 135.35567412 16.70332565 135.35567412 12.90046692 134.62818909 Z M42.83796692 198.75318909 C26.46698337 217.88677611 16.80110961 241.73461372 13.90046692 266.62818909 C17.16903421 268.80723394 18.09721801 268.88020374 21.88127136 268.8888855 C22.90996338 268.89597031 23.9386554 268.90305511 24.9985199 268.91035461 C26.12680206 268.9078772 27.25508423 268.90539978 28.41755676 268.90284729 C29.60655579 268.90795822 30.79555481 268.91306915 32.02058411 268.91833496 C35.28568536 268.92987038 38.55062952 268.93230082 41.81574583 268.92977166 C44.54854149 268.92870117 47.28131383 268.93358831 50.01410449 268.93837708 C56.47315058 268.94948224 62.93213855 268.94990674 69.39118958 268.94386292 C76.02745573 268.93784776 82.66350854 268.95006878 89.29973829 268.97143298 C95.01291951 268.98914122 100.72603345 268.99503516 106.43924105 268.99179524 C109.84401209 268.98999379 113.24863162 268.99250153 116.65337753 269.00650978 C120.46555845 269.01894406 124.27725766 269.01203832 128.08943176 269.00050354 C129.19747162 269.00814728 130.30551147 269.01579102 131.4471283 269.02366638 C148.75377617 268.90880655 163.9715005 263.45446531 176.49421692 251.30006409 C187.16251445 239.45409735 192.47417597 224.85817724 192.14265442 209.01881409 C191.04717963 193.68216709 184.44334734 179.87908289 172.90046692 169.62818909 C131.50437839 137.73814553 74.16238091 165.70625131 42.83796692 198.75318909 Z M33.97077942 167.78443909 C28.56255132 172.45293993 24.41080544 177.41759017 20.90046692 183.62818909 C20.40288879 184.50217346 19.90531067 185.37615784 19.39265442 186.27662659 C16.63877486 190.84165328 16.63877486 190.84165328 16.27156067 195.92115784 C16.47909973 196.48447815 16.68663879 197.04779846 16.90046692 197.62818909 C17.44574036 196.95014221 17.99101379 196.27209534 18.55281067 195.57350159 C29.44628705 182.12890338 40.74676699 169.69909096 54.90046692 159.62818909 C48.30636376 156.80214488 39.24743697 163.90081913 33.97077942 167.78443909 Z " fill="#F0D681" transform="translate(75.09953308105469,35.37181091308594)"/>
<path d="M0 0 C1.27678116 -0.01265396 2.55356232 -0.02530792 3.86903381 -0.03834534 C5.28731176 -0.02702776 6.7055857 -0.01520021 8.12385559 -0.00291443 C9.61556856 -0.00805216 11.10727546 -0.01533234 12.59896851 -0.02459717 C16.65781415 -0.04315934 20.71600523 -0.03013443 24.7748239 -0.01050687 C29.03280253 0.00588099 33.29073968 -0.00293528 37.54873657 -0.00802612 C44.71385622 -0.01255333 51.87871544 0.00334564 59.04377747 0.03126526 C67.29213732 0.06316131 75.54002329 0.06336548 83.78841609 0.04605049 C91.74674279 0.03008791 99.70489814 0.03699129 107.66321754 0.0539875 C111.03562881 0.06080704 114.40790062 0.05987804 117.78030968 0.05244255 C121.77367902 0.04468358 125.7665218 0.05721282 129.75980186 0.08429146 C131.21243224 0.09108319 132.66511271 0.09137461 134.11774063 0.08407593 C147.31590539 0.02549319 160.34541557 1.88774246 171.90046692 8.62818909 C168.72254569 10.2171497 165.79139729 8.72804653 162.52546692 7.81568909 C161.85257629 7.63715393 161.17968567 7.45861877 160.48640442 7.27467346 C155.31744778 5.86542052 155.31744778 5.86542052 153.04848862 4.57454967 C150.23674305 3.3357702 148.00096114 3.37937678 144.93055725 3.38095093 C143.09695145 3.37465919 143.09695145 3.37465919 141.2263031 3.36824036 C139.87452618 3.37372369 138.52275006 3.37940667 137.17097473 3.38526917 C135.74495863 3.38419599 134.31894295 3.38225679 132.89292908 3.3795166 C129.02080839 3.37466896 125.14880296 3.3823244 121.27669621 3.39246964 C117.22052201 3.40125908 113.16435133 3.39949248 109.10816956 3.39910889 C102.29217098 3.40004561 95.4762169 3.40872812 88.66023254 3.42237854 C80.7918451 3.43807892 72.92350647 3.44337749 65.05510449 3.44264299 C56.66818236 3.44196592 48.28127893 3.44891906 39.89436245 3.45808959 C37.48379126 3.46021575 35.07322311 3.46093009 32.66265106 3.46132851 C28.86400459 3.46233769 25.06539866 3.46848108 21.26676559 3.47849464 C19.87687554 3.48140055 18.48698083 3.48264891 17.09708786 3.48206711 C6.94681499 3.40640177 6.94681499 3.40640177 -3.09953308 4.62818909 C-4.37397098 7.17706489 -4.22897451 8.98353896 -4.23234558 11.83522034 C-4.23427917 12.89168762 -4.23621277 13.94815491 -4.23820496 15.03663635 C-4.23369324 16.15997375 -4.22918152 17.28331116 -4.22453308 18.44068909 C-4.22259949 19.5724054 -4.22066589 20.7041217 -4.21867371 21.87013245 C-4.17921152 29.50003634 -3.94437029 37.03974059 -3.09953308 44.62818909 C-5.22454511 41.08650237 -5.57450827 37.68175899 -6.09953308 33.62818909 C-6.15057715 41.24127818 -6.18541016 48.85432253 -6.20939636 56.46754456 C-6.21940441 59.05317331 -6.23301498 61.63879089 -6.25041199 64.22438049 C-6.27488982 67.95796989 -6.28606852 71.6914086 -6.29484558 75.42506409 C-6.30516815 76.56618652 -6.31549072 77.70730896 -6.3261261 78.88301086 C-6.3275445 89.21369297 -5.17505533 98.95334912 -1.28703308 108.56568909 C-0.80621277 109.79158752 -0.32539246 111.01748596 0.16999817 112.28053284 C1.99824101 115.81733671 4.00100873 117.93583506 6.90046692 120.62818909 C7.79063314 121.81025264 8.65195502 123.01547755 9.46296692 124.25318909 C11.32978514 126.93930057 13.00291987 128.98624576 15.90046692 130.62818909 C16.89046692 130.62818909 17.88046692 130.62818909 18.90046692 130.62818909 C19.23046692 131.61818909 19.56046692 132.60818909 19.90046692 133.62818909 C20.56046692 133.95818909 21.22046692 134.28818909 21.90046692 134.62818909 C22.56046692 134.95818909 23.22046692 135.28818909 23.90046692 135.62818909 C24.23046692 136.61818909 24.56046692 137.60818909 24.90046692 138.62818909 C25.56046692 138.62818909 26.22046692 138.62818909 26.90046692 138.62818909 C26.90046692 139.28818909 26.90046692 139.94818909 26.90046692 140.62818909 C28.55046692 140.62818909 30.20046692 140.62818909 31.90046692 140.62818909 C32.23046692 141.28818909 32.56046692 141.94818909 32.90046692 142.62818909 C32.57046692 143.28818909 32.24046692 143.94818909 31.90046692 144.62818909 C32.56046692 144.95818909 33.22046692 145.28818909 33.90046692 145.62818909 C32.09634049 148.89279882 31.06651999 150.51748704 27.90046692 152.62818909 C27.90046692 151.96818909 27.90046692 151.30818909 27.90046692 150.62818909 C27.17859192 151.08193909 26.45671692 151.53568909 25.71296692 152.00318909 C22.90046692 153.62818909 22.90046692 153.62818909 20.33796692 154.50318909 C17.67172008 155.50952513 17.67172008 155.50952513 15.83796692 158.25318909 C15.19859192 159.03693909 14.55921692 159.82068909 13.90046692 160.62818909 C12.58046692 160.62818909 11.26046692 160.62818909 9.90046692 160.62818909 C9.78574036 161.21600159 9.67101379 161.80381409 9.55281067 162.40943909 C8.85626616 164.77852461 7.95628319 166.17845865 6.46296692 168.12818909 C2.87108319 173.01397905 1.6091958 176.48587215 0.90046692 182.62818909 C-0.08953308 182.95818909 -1.07953308 183.28818909 -2.09953308 183.62818909 C-2.22328308 184.72131409 -2.34703308 185.81443909 -2.47453308 186.94068909 C-3.09953308 190.62818909 -3.09953308 190.62818909 -5.09953308 193.62818909 C-5.38982508 196.15463937 -5.38982508 196.15463937 -5.32658386 199.01759338 C-5.3264328 200.11850815 -5.32628174 201.21942291 -5.3261261 202.35369873 C-5.31580353 203.54127274 -5.30548096 204.72884674 -5.29484558 205.95240784 C-5.29060074 207.77721428 -5.29060074 207.77721428 -5.28627014 209.6388855 C-5.27505911 213.53125267 -5.24995256 217.42339125 -5.22453308 221.31568909 C-5.21450449 223.95175348 -5.20537843 226.58782147 -5.19718933 229.22389221 C-5.17511674 235.6920694 -5.14162996 242.16011291 -5.09953308 248.62818909 C-4.95515808 247.32881409 -4.81078308 246.02943909 -4.66203308 244.69068909 C-4.22453308 240.75318909 -4.22453308 240.75318909 -3.09953308 239.62818909 C-2.94484558 237.74100159 -2.94484558 237.74100159 -2.78703308 235.81568909 C-2.4381012 232.57643811 -2.20447332 231.75538938 -0.03703308 229.12818909 C0.60234192 228.63318909 1.24171692 228.13818909 1.90046692 227.62818909 C1.04141316 233.03613706 -0.10540613 238.35641909 -1.28312683 243.70240784 C-1.55740182 245.01055482 -1.82931371 246.31919834 -2.09953308 247.62818909 C-2.27162292 248.43506165 -2.44371277 249.2419342 -2.62101746 250.07325745 C-4.07020921 257.32514474 -4.51693919 264.43313129 -4.72453308 271.81568909 C-4.78254089 273.52981995 -4.78254089 273.52981995 -4.84172058 275.27857971 C-4.93487719 278.06163354 -5.02069157 280.8446993 -5.09953308 283.62818909 C-2.58967918 284.88311604 -0.23823012 285.20864891 2.52546692 285.69068909 C3.52835754 285.86729065 4.53124817 286.04389221 5.56452942 286.22584534 C6.33538879 286.35861877 7.10624817 286.49139221 7.90046692 286.62818909 C7.90046692 285.96818909 7.90046692 285.30818909 7.90046692 284.62818909 C10.87046692 284.62818909 13.84046692 284.62818909 16.90046692 284.62818909 C17.23046692 285.61818909 17.56046692 286.60818909 17.90046692 287.62818909 C34.41686574 287.69840726 50.9332158 287.7512398 67.44972801 287.7836256 C75.1193937 287.79906553 82.7889664 287.82009974 90.45857239 287.85450745 C97.14683683 287.8844982 103.83503389 287.90378497 110.52336371 287.91045457 C114.06169012 287.91435053 117.59982384 287.92344581 121.13808823 287.94537926 C125.09716534 287.96972007 129.05605746 287.97015289 133.01521301 287.96876526 C134.75662567 287.984944 134.75662567 287.984944 136.53321838 288.00144958 C143.54479623 287.97493987 149.3001163 286.91635115 155.90046692 284.62818909 C164.64958084 282.29383023 164.64958084 282.29383023 168.90046692 283.62818909 C166.52730574 284.44641641 164.15217272 285.25787616 161.77546692 286.06568909 C160.77773254 286.41083557 160.77773254 286.41083557 159.75984192 286.76295471 C158.77370911 287.09649963 158.77370911 287.09649963 157.76765442 287.43678284 C156.87215881 287.7431366 156.87215881 287.7431366 155.95857239 288.05567932 C151.07946728 289.41291556 146.34121649 289.75253329 141.29454041 289.7484436 C139.98209854 289.74981827 138.66965668 289.75119293 137.31744385 289.75260925 C135.87522865 289.74907076 134.43301369 289.74543596 132.99079895 289.74171448 C131.46283978 289.74143222 129.93488048 289.7415911 128.40692139 289.74215698 C124.26896697 289.74244345 120.13104164 289.73657105 115.99309397 289.72958302 C111.66492772 289.72332442 107.33676077 289.7227437 103.0085907 289.72155762 C94.81707086 289.7184517 86.62556439 289.71024826 78.43405044 289.70020813 C69.10640016 289.68902405 59.77874923 289.68353075 50.45109391 289.67851269 C31.267544 289.66806504 12.08400654 289.6504799 -7.09953308 289.62818909 C-8.65582937 286.16466984 -9.35011049 283.46059257 -9.35400867 279.6696701 C-9.35984087 278.69093099 -9.36567306 277.71219188 -9.37168199 276.703794 C-9.36790266 275.63619423 -9.36412334 274.56859447 -9.36022949 273.46864319 C-9.36405504 272.32858778 -9.36788059 271.18853238 -9.37182206 270.01392984 C-9.38215894 266.18543319 -9.37815856 262.35708632 -9.37419128 258.52857971 C-9.3774433 255.78721685 -9.38365546 253.04586238 -9.38967896 250.30450439 C-9.40243064 243.62655793 -9.40421911 236.94865167 -9.40187869 230.27069509 C-9.40009611 224.84369736 -9.40184388 219.41671184 -9.40610313 213.98971558 C-9.40669832 213.21751085 -9.40729351 212.44530613 -9.40790674 211.64970127 C-9.40911848 210.08101459 -9.41033261 208.51232792 -9.41154911 206.94364125 C-9.42242619 192.23178816 -9.4202612 177.519958 -9.41416427 162.80810362 C-9.40899339 149.3452291 -9.42025474 135.8824269 -9.43926249 122.41956669 C-9.45862696 108.59819573 -9.46689943 94.776859 -9.46313924 80.95547438 C-9.46122527 73.19485055 -9.4637338 65.43428831 -9.47785378 57.67367554 C-9.48975075 51.06800371 -9.49119136 44.46243139 -9.47906361 37.85675824 C-9.47316331 34.48595398 -9.47372585 31.11548152 -9.48406601 27.74466515 C-9.49446452 24.09218451 -9.48648792 20.44019743 -9.47375488 16.78773499 C-9.48112917 15.72013522 -9.48850345 14.65253545 -9.4961012 13.55258417 C-9.43812197 5.6782758 -9.20223966 0.0048515 0 0 Z M12.90046692 134.62818909 C12.90046692 141.88818909 12.90046692 149.14818909 12.90046692 156.62818909 C16.66951093 154.74366708 19.82868915 152.54617685 23.15046692 150.00318909 C23.70476379 149.58295471 24.25906067 149.16272034 24.83015442 148.72975159 C26.18913355 147.6988019 27.54510527 146.66388997 28.90046692 145.62818909 C26.36401778 143.01813763 23.79859683 140.64258857 20.90046692 138.44068909 C20.24046692 137.9315094 19.58046692 137.42232971 18.90046692 136.89772034 C16.70332565 135.35567412 16.70332565 135.35567412 12.90046692 134.62818909 Z " fill="#BA964E" transform="translate(75.09953308105469,35.37181091308594)"/>
<path d="M0 0 C1.27678116 -0.01265396 2.55356232 -0.02530792 3.86903381 -0.03834534 C5.28731176 -0.02702776 6.7055857 -0.01520021 8.12385559 -0.00291443 C9.61556856 -0.00805216 11.10727546 -0.01533234 12.59896851 -0.02459717 C16.65781415 -0.04315934 20.71600523 -0.03013443 24.7748239 -0.01050687 C29.03280253 0.00588099 33.29073968 -0.00293528 37.54873657 -0.00802612 C44.71385622 -0.01255333 51.87871544 0.00334564 59.04377747 0.03126526 C67.29213732 0.06316131 75.54002329 0.06336548 83.78841609 0.04605049 C91.74674279 0.03008791 99.70489814 0.03699129 107.66321754 0.0539875 C111.03562881 0.06080704 114.40790062 0.05987804 117.78030968 0.05244255 C121.77367902 0.04468358 125.7665218 0.05721282 129.75980186 0.08429146 C131.21243224 0.09108319 132.66511271 0.09137461 134.11774063 0.08407593 C147.31590539 0.02549319 160.34541557 1.88774246 171.90046692 8.62818909 C168.72254569 10.2171497 165.79139729 8.72804653 162.52546692 7.81568909 C161.85257629 7.63715393 161.17968567 7.45861877 160.48640442 7.27467346 C155.31744778 5.86542052 155.31744778 5.86542052 153.04848862 4.57454967 C150.23674305 3.3357702 148.00096114 3.37937678 144.93055725 3.38095093 C143.09695145 3.37465919 143.09695145 3.37465919 141.2263031 3.36824036 C139.87452618 3.37372369 138.52275006 3.37940667 137.17097473 3.38526917 C135.74495863 3.38419599 134.31894295 3.38225679 132.89292908 3.3795166 C129.02080839 3.37466896 125.14880296 3.3823244 121.27669621 3.39246964 C117.22052201 3.40125908 113.16435133 3.39949248 109.10816956 3.39910889 C102.29217098 3.40004561 95.4762169 3.40872812 88.66023254 3.42237854 C80.7918451 3.43807892 72.92350647 3.44337749 65.05510449 3.44264299 C56.66818236 3.44196592 48.28127893 3.44891906 39.89436245 3.45808959 C37.48379126 3.46021575 35.07322311 3.46093009 32.66265106 3.46132851 C28.86400459 3.46233769 25.06539866 3.46848108 21.26676559 3.47849464 C19.87687554 3.48140055 18.48698083 3.48264891 17.09708786 3.48206711 C6.94681499 3.40640177 6.94681499 3.40640177 -3.09953308 4.62818909 C-4.37397098 7.17706489 -4.22897451 8.98353896 -4.23234558 11.83522034 C-4.23427917 12.89168762 -4.23621277 13.94815491 -4.23820496 15.03663635 C-4.23369324 16.15997375 -4.22918152 17.28331116 -4.22453308 18.44068909 C-4.22259949 19.5724054 -4.22066589 20.7041217 -4.21867371 21.87013245 C-4.17921152 29.50003634 -3.94437029 37.03974059 -3.09953308 44.62818909 C-5.41747845 40.76494681 -5.38850771 38.6053667 -6.09953308 33.62818909 C-6.42953308 117.77818909 -6.75953308 201.92818909 -7.09953308 288.62818909 C-8.97446368 284.8783279 -9.34996568 283.7262398 -9.35400867 279.79271793 C-9.35984087 278.81596987 -9.36567306 277.8392218 -9.37168199 276.83287531 C-9.36790266 275.7623627 -9.36412334 274.69185009 -9.36022949 273.58889771 C-9.36596781 271.88009624 -9.36596781 271.88009624 -9.37182206 270.13677353 C-9.38217178 266.30517095 -9.37815612 262.47371768 -9.37419128 258.6421051 C-9.37744213 255.90088974 -9.38365444 253.15968277 -9.38967896 250.41847229 C-9.40243842 243.73704662 -9.40421811 237.05566112 -9.40187869 230.37422533 C-9.4000968 224.94434327 -9.4018424 219.51447342 -9.40610313 214.08459282 C-9.40669832 213.31225261 -9.40729351 212.5399124 -9.40790674 211.74416794 C-9.40911847 210.17523973 -9.4103326 208.60631152 -9.41154911 207.03738331 C-9.42242941 192.31885815 -9.42025981 177.60035589 -9.41416427 162.88182943 C-9.40899439 149.41242482 -9.42025155 135.94309251 -9.43926249 122.4737022 C-9.45862717 108.64784285 -9.46689931 94.82201772 -9.46313924 80.99614471 C-9.46122514 73.23215254 -9.46373498 65.46822192 -9.47785378 57.7042408 C-9.48975111 51.09488497 -9.49119104 44.48562859 -9.47906361 37.87627143 C-9.47316325 34.50344893 -9.47372592 31.13095802 -9.48406601 27.7581234 C-9.49446455 24.10339982 -9.48648786 20.44916951 -9.47375488 16.79446411 C-9.48112917 15.72618222 -9.48850345 14.65790033 -9.4961012 13.55724627 C-9.43814867 5.68160448 -9.2046912 0.00485279 0 0 Z " fill="#824A24" transform="translate(75.09953308105469,35.37181091308594)"/>
<path d="M0 0 C0.33 0 0.66 0 1 0 C1.33 17.49 1.66 34.98 2 53 C2.33 50.36 2.66 47.72 3 45 C3.495 44.505 3.495 44.505 4 44 C4.103125 42.741875 4.20625 41.48375 4.3125 40.1875 C4.66143188 36.94824902 4.89505976 36.12720029 7.0625 33.5 C7.701875 33.005 8.34125 32.51 9 32 C8.14094624 37.40794798 6.99412696 42.72823 5.81640625 48.07421875 C5.54213126 49.38236573 5.27021937 50.69100925 5 52 C4.82791016 52.80687256 4.65582031 53.61374512 4.47851562 54.44506836 C3.02932387 61.69695565 2.58259389 68.8049422 2.375 76.1875 C2.31699219 77.90163086 2.31699219 77.90163086 2.2578125 79.65039062 C2.16465589 82.43344445 2.07884151 85.21651022 2 88 C4.5098539 89.25492695 6.86130296 89.58045982 9.625 90.0625 C10.62789062 90.23910156 11.63078125 90.41570312 12.6640625 90.59765625 C13.43492188 90.73042969 14.20578125 90.86320312 15 91 C15 90.34 15 89.68 15 89 C17.97 89 20.94 89 24 89 C24.33 89.99 24.66 90.98 25 92 C41.51639882 92.07021818 58.03274888 92.12305072 74.54926109 92.15543652 C82.21892678 92.17087644 89.88849948 92.19191065 97.55810547 92.22631836 C104.24636991 92.25630911 110.93456697 92.27559588 117.62289679 92.28226548 C121.1612232 92.28616144 124.69935692 92.29525672 128.23762131 92.31719017 C132.19669842 92.34153098 136.15559055 92.3419638 140.11474609 92.34057617 C141.27568787 92.351362 142.43662964 92.36214783 143.63275146 92.3732605 C150.64432931 92.34675078 156.39964938 91.28816206 163 89 C171.74911392 86.66564114 171.74911392 86.66564114 176 88 C173.62683882 88.81822733 171.2517058 89.62968707 168.875 90.4375 C168.20984375 90.66759766 167.5446875 90.89769531 166.859375 91.13476562 C166.20195312 91.35712891 165.54453125 91.57949219 164.8671875 91.80859375 C164.27019043 92.01282959 163.67319336 92.21706543 163.05810547 92.42749023 C158.17900036 93.78472647 153.44074957 94.12434421 148.39407349 94.12025452 C147.08163162 94.12162918 145.76918976 94.12300385 144.41697693 94.12442017 C142.97476173 94.12088167 141.53254677 94.11724687 140.09033203 94.11352539 C138.56237286 94.11324313 137.03441356 94.11340201 135.50645447 94.1139679 C131.36850005 94.11425436 127.23057472 94.10838197 123.09262705 94.10139394 C118.7644608 94.09513533 114.43629386 94.09455462 110.10812378 94.09336853 C101.91660394 94.09026261 93.72509748 94.08205918 85.53358352 94.07201904 C74.46121719 94.058743 63.3888472 94.05335203 52.31647491 94.04751682 C34.87763993 94.0381188 17.43883316 94.01819493 0 94 C0 62.98 0 31.96 0 0 Z " fill="#D29C62" transform="translate(68,231)"/>
<path d="M0 0 C1.91104774 -0.01073296 1.91104774 -0.01073296 3.86070251 -0.02168274 C5.28623938 -0.0245235 6.71177651 -0.02723517 8.13731384 -0.02983093 C9.62872477 -0.03609329 11.12013412 -0.04273989 12.61154175 -0.04974365 C17.52889408 -0.07084104 22.44624687 -0.08116198 27.3636322 -0.09111023 C29.05871026 -0.09515786 30.75378816 -0.09927478 32.44886589 -0.10346031 C40.42482805 -0.1225367 48.40078089 -0.13675377 56.3767615 -0.14507228 C65.55869335 -0.15480736 74.74038171 -0.18101816 83.92222792 -0.22157317 C91.02987231 -0.25187786 98.1374476 -0.26655529 105.24515527 -0.26985329 C109.48344262 -0.27219059 113.72147066 -0.28097451 117.95968819 -0.30631447 C121.96115802 -0.32984759 125.96220265 -0.3337289 129.96372414 -0.32355309 C131.41960832 -0.32306341 132.87551522 -0.3292124 134.33133316 -0.34310913 C147.55445942 -0.46209169 160.56426032 1.3940869 172.14097595 8.14717102 C168.96305472 9.73613163 166.03190632 8.24702846 162.76597595 7.33467102 C162.09308533 7.15613586 161.4201947 6.97760071 160.72691345 6.7936554 C155.55795681 5.38440245 155.55795681 5.38440245 153.28899765 4.09353161 C150.47725208 2.85475214 148.24147018 2.89835871 145.17106628 2.89993286 C143.33746048 2.89364113 143.33746048 2.89364113 141.46681213 2.88722229 C140.11503521 2.89270563 138.76325909 2.8983886 137.41148376 2.9042511 C135.98546766 2.90317793 134.55945198 2.90123872 133.13343811 2.89849854 C129.26131743 2.89365089 125.38931199 2.90130633 121.51720524 2.91145158 C117.46103104 2.92024102 113.40486037 2.91847441 109.34867859 2.91809082 C102.53268001 2.91902755 95.71672593 2.92771005 88.90074158 2.94136047 C81.03235413 2.95706085 73.16401551 2.96235942 65.29561353 2.96162492 C56.90869139 2.96094786 48.52178796 2.96790099 40.13487148 2.97707152 C37.72430029 2.97919768 35.31373214 2.97991202 32.9031601 2.98031044 C29.10451363 2.98131962 25.30590769 2.98746302 21.50727463 2.99747658 C20.11738458 3.00038249 18.72748986 3.00163084 17.33759689 3.00104904 C7.18732402 2.92538371 7.18732402 2.92538371 -2.85902405 4.14717102 C-4.13346195 6.69604682 -3.98846548 8.50252089 -3.99183655 11.35420227 C-3.99377014 12.41066956 -3.99570374 13.46713684 -3.99769592 14.55561829 C-3.9931842 15.67895569 -3.98867249 16.80229309 -3.98402405 17.95967102 C-3.98209045 19.09138733 -3.98015686 20.22310364 -3.97816467 21.38911438 C-3.93870249 29.01901827 -3.70386126 36.55872253 -2.85902405 44.14717102 C-4.83799965 40.51100446 -5.38413054 37.26291473 -5.85902405 33.14717102 C-6.18902405 33.14717102 -6.51902405 33.14717102 -6.85902405 33.14717102 C-6.88367797 28.60819397 -6.90186193 24.06925559 -6.91395569 19.53022766 C-6.91899544 17.98497336 -6.92582724 16.43972386 -6.9344635 14.89448547 C-6.94654481 12.67792073 -6.95225577 10.46141884 -6.9566803 8.24482727 C-6.96184158 7.55002762 -6.96700287 6.85522797 -6.97232056 6.13937378 C-6.97251682 4.47487772 -6.92091534 2.81051603 -6.85902405 1.14717102 C-5.07120629 -0.64064674 -2.41580705 0.00926787 0 0 Z " fill="#CD9E63" transform="translate(74.85902404785156,35.85282897949219)"/>
<path d="M0 0 C16.72536634 -0.04686104 33.45071117 -0.08205762 50.17612743 -0.10362434 C57.94320568 -0.11390731 65.71024297 -0.1279102 73.47729492 -0.15087891 C80.25238538 -0.17090452 87.02744616 -0.18373805 93.8025654 -0.18817699 C97.38509411 -0.19076895 100.96753796 -0.19679794 104.55003929 -0.21146011 C108.56358878 -0.22775098 112.57699367 -0.22797386 116.59057617 -0.22705078 C118.3438623 -0.23783661 118.3438623 -0.23783661 120.13256836 -0.24884033 C141.46162115 -0.19609228 141.46162115 -0.19609228 146.3125 4.625 C146.869375 5.40875 147.42625 6.1925 148 7 C146.67918175 6.57367279 146.67918175 6.57367279 145.3316803 6.13873291 C131.4682056 2.0848746 117.5512442 2.47526128 103.22745013 2.59442425 C99.65744843 2.61976384 96.08742701 2.62180512 92.51734924 2.62652588 C85.78521268 2.63886155 79.05334204 2.67155272 72.32132155 2.71192384 C64.64517405 2.75693822 56.96901254 2.77870244 49.2927655 2.79870558 C33.52835738 2.84029617 17.76421324 2.91046079 2 3 C2.46194761 5.71104696 2.92822126 8.42123183 3.39697266 11.13110352 C3.52624649 11.89246864 3.65552032 12.65383377 3.78871155 13.43827057 C4.83510431 19.45700424 6.3417917 25.17248957 8.375 30.9375 C8.82854858 32.26551636 8.82854858 32.26551636 9.29125977 33.62036133 C11.1967654 39.07797527 13.32029088 44.30148372 16.15234375 49.35546875 C17 51 17 51 17 53 C16.34 53 15.68 53 15 53 C13.36915673 49.6277935 11.74638276 46.2517641 10.125 42.875 C9.66480469 41.92367187 9.20460938 40.97234375 8.73046875 39.9921875 C4.99710916 32.20082836 2.68128371 25.0866677 1.375 16.5625 C1.2409375 15.74201172 1.106875 14.92152344 0.96875 14.07617188 C0.84242187 13.26857422 0.71609375 12.46097656 0.5859375 11.62890625 C0.4729834 10.90775635 0.3600293 10.18660645 0.24365234 9.44360352 C-0.07078748 6.2900683 -0.01440963 3.16733251 0 0 Z " fill="#96663B" transform="translate(88,56)"/>
<path d="M0 0 C0.66 0.33 1.32 0.66 2 1 C-3.625 5 -3.625 5 -7 5 C-7 5.66 -7 6.32 -7 7 C-8.96875 8.5078125 -8.96875 8.5078125 -11.5 10.125 C-12.3353125 10.66382813 -13.170625 11.20265625 -14.03125 11.7578125 C-14.6809375 12.16773438 -15.330625 12.57765625 -16 13 C-16.66 12.67 -17.32 12.34 -18 12 C-17.34 11.34 -16.68 10.68 -16 10 C-26.85659723 11.3967552 -35.73770265 18.07401291 -43 26 C-45.30591987 29.19853402 -47.19791236 32.49719214 -49 36 C-49.4125 36.76054687 -49.825 37.52109375 -50.25 38.3046875 C-52.43024788 42.42959171 -52.43024788 42.42959171 -53 47 C-52.44570312 46.28972656 -51.89140625 45.57945312 -51.3203125 44.84765625 C-50.59585938 43.92855469 -49.87140625 43.00945312 -49.125 42.0625 C-48.40570313 41.14597656 -47.68640625 40.22945312 -46.9453125 39.28515625 C-45 37 -45 37 -43 36 C-44.50774142 41.73677223 -45.61313746 45.82313235 -51 49 C-51.66 49 -52.32 49 -53 49 C-53.99 51.475 -53.99 51.475 -55 54 C-55.66 54 -56.32 54 -57 54 C-57.16427521 50.63235828 -57.00189628 48.00657379 -56.0625 44.75 C-54.7674828 40.17935107 -54.36106149 35.72230416 -54 31 C-53.38898438 30.92265625 -52.77796875 30.8453125 -52.1484375 30.765625 C-49.85448802 30.1877495 -49.85448802 30.1877495 -48.7265625 28.109375 C-48.18128906 26.94148438 -48.18128906 26.94148438 -47.625 25.75 C-45.28172372 21.24976299 -43.26010789 18.78211127 -39 16 C-35.625 15.1875 -35.625 15.1875 -33 15 C-32.90912109 14.09507812 -32.90912109 14.09507812 -32.81640625 13.171875 C-32 11 -32 11 -29.77734375 9.515625 C-23.86166023 6.87919933 -19.4839099 5.38831039 -13 6 C-12.67 5.34 -12.34 4.68 -12 4 C-11.01 4.33 -10.02 4.66 -9 5 C-6.73113579 3.98337813 -6.73113579 3.98337813 -4.4375 2.5 C-2.05859375 1.03125 -2.05859375 1.03125 0 0 Z " fill="#CF9D5C" transform="translate(145,185)"/>
<path d="M0 0 C0.928125 0.825 1.85625 1.65 2.8125 2.5 C10.63074393 9.15181238 18.17294267 14.75984227 28 18 C28.33 17.67 28.66 17.34 29 17 C28.43410156 16.59007812 27.86820313 16.18015625 27.28515625 15.7578125 C26.55167969 15.21898437 25.81820312 14.68015625 25.0625 14.125 C23.96615234 13.32449219 23.96615234 13.32449219 22.84765625 12.5078125 C21 11 21 11 20 9 C20.7425 9.309375 21.485 9.61875 22.25 9.9375 C24.83521342 11.06566883 24.83521342 11.06566883 27.0625 11.25 C29 12 29 12 30.9375 14.9375 C33.26739937 18.39704755 34.1485888 18.77455098 38 20 C39.44657343 20.68961415 40.883707 21.39926387 42.3125 22.125 C43.00988281 22.47820312 43.70726562 22.83140625 44.42578125 23.1953125 C44.94527344 23.46085937 45.46476562 23.72640625 46 24 C46 24.66 46 25.32 46 26 C46.763125 26.144375 47.52625 26.28875 48.3125 26.4375 C51 27 51 27 54 28 C54 28.66 54 29.32 54 30 C54.99 30.33 55.98 30.66 57 31 C56.67 32.32 56.34 33.64 56 35 C51.545 35.495 51.545 35.495 47 36 C50.75 33 50.75 33 53 33 C51.09672977 30.56804359 50.25929447 30.03382102 47.125 29.625 C43.09902957 28.81980591 41.8561617 26.8561617 39 24 C35.50118802 23.07174376 32.6335943 23 29 23 C28.67 22.34 28.34 21.68 28 21 C27.236875 21.185625 26.47375 21.37125 25.6875 21.5625 C23 22 23 22 20 21 C19.3125 18.9375 19.3125 18.9375 19 17 C18.0925 17.103125 17.185 17.20625 16.25 17.3125 C13 17 13 17 10.75 14.5625 C10.1725 13.716875 9.595 12.87125 9 12 C8.34 11.67 7.68 11.34 7 11 C6.54625 10.236875 6.0925 9.47375 5.625 8.6875 C4.10334089 5.92890733 4.10334089 5.92890733 1.8125 3.8125 C1.214375 3.214375 0.61625 2.61625 0 2 C0 1.34 0 0.68 0 0 Z " fill="#B5824B" transform="translate(100,149)"/>
<path d="M0 0 C0.66 0 1.32 0 2 0 C0.61402852 4.34183483 -1.03254285 8.49356403 -2.8125 12.6875 C-5.26735875 18.66187495 -7.16911086 24.69262128 -8.8125 30.9375 C-9.12247925 32.10768677 -9.12247925 32.10768677 -9.4387207 33.30151367 C-10.67948143 38.18997533 -11.46934488 42.98445319 -12 48 C-9.51432742 49.24283629 -7.83382097 49.13854874 -5.05197144 49.15821838 C-4.005867 49.1680072 -2.95976257 49.17779602 -1.88195801 49.18788147 C-0.72965698 49.19363693 0.42264404 49.1993924 1.60986328 49.20532227 C3.42446548 49.22017166 3.42446548 49.22017166 5.27572632 49.23532104 C8.59781077 49.26154305 11.91987074 49.28339092 15.24199533 49.30332303 C18.71204643 49.32516736 22.1820535 49.35256363 25.65206909 49.37937927 C32.22518195 49.42932721 38.79831921 49.47425822 45.37147987 49.51740164 C52.85387964 49.56675608 60.33623524 49.62168085 67.81859231 49.67708123 C83.21235407 49.79093351 98.60615643 49.89776546 114 50 C114 50.33 114 50.66 114 51 C71.76 51 29.52 51 -14 51 C-14 38.30283604 -11.98553388 27.99529616 -8 16 C-7.34 16 -6.68 16 -6 16 C-5.81824219 15.34773438 -5.63648437 14.69546875 -5.44921875 14.0234375 C-4.02533404 9.07269989 -2.50592766 4.53453577 0 0 Z " fill="#9A6B41" transform="translate(102,254)"/>
<path d="M0 0 C19.80273142 -0.09373941 39.60541736 -0.16412354 59.4083252 -0.20724869 C68.60464934 -0.22781107 77.80083506 -0.25580963 86.99707031 -0.30175781 C95.01921756 -0.34182042 103.04126447 -0.36747868 111.06350899 -0.37635398 C115.30518147 -0.3815361 119.54656709 -0.39358141 123.78814697 -0.42292023 C127.79368801 -0.45039766 131.79882846 -0.458381 135.8044548 -0.45243073 C137.26195846 -0.45351672 138.7194778 -0.46127602 140.17689896 -0.4768219 C153.40898497 -0.61084799 166.41532436 1.24227254 178 8 C174.88832364 9.55583818 172.13149256 8.15094991 168.9375 7.25 C167.66777344 6.90453125 166.39804688 6.5590625 165.08984375 6.203125 C163.05639646 5.63657759 161.11081262 5.04564073 159.15831089 4.24145794 C151.92714175 1.35472688 144.70505428 1.55823293 137.02514648 1.56762695 C135.52629291 1.55859688 134.0274467 1.54826663 132.52861023 1.53674316 C128.48379781 1.50929302 124.43912597 1.49990505 120.39423251 1.49388909 C116.15811574 1.48447404 111.9221027 1.45826823 107.68605042 1.43388367 C99.67527903 1.39030083 91.66452786 1.3617035 83.65367419 1.33856028 C74.52903256 1.31146445 65.4044957 1.26755572 56.27992904 1.22227156 C37.5200081 1.12954302 18.76005943 1.05780843 0 1 C0 0.67 0 0.34 0 0 Z " fill="#8D5C35" transform="translate(69,36)"/>
<path d="M0 0 C-2.37316118 0.81822733 -4.7482942 1.62968707 -7.125 2.4375 C-7.79015625 2.66759766 -8.4553125 2.89769531 -9.140625 3.13476562 C-9.79804688 3.35712891 -10.45546875 3.57949219 -11.1328125 3.80859375 C-11.72980957 4.01282959 -12.32680664 4.21706543 -12.94189453 4.42749023 C-17.82099964 5.78472647 -22.55925043 6.12434421 -27.60592651 6.12025452 C-28.91836838 6.12162918 -30.23081024 6.12300385 -31.58302307 6.12442017 C-33.02523827 6.12088167 -34.46745323 6.11724687 -35.90966797 6.11352539 C-37.43762714 6.11324313 -38.96558644 6.11340201 -40.49354553 6.1139679 C-44.63149995 6.11425436 -48.76942528 6.10838197 -52.90737295 6.10139394 C-57.2355392 6.09513533 -61.56370614 6.09455462 -65.89187622 6.09336853 C-74.08339606 6.09026261 -82.27490252 6.08205918 -90.46641648 6.07201904 C-99.79406676 6.06083496 -109.12171769 6.05534167 -118.44937301 6.05032361 C-137.63292291 6.03987595 -156.81646038 6.02229081 -176 6 C-176 5.67 -176 5.34 -176 5 C-175.22069689 4.99761165 -174.44139378 4.99522329 -173.63847542 4.99276257 C-154.64954564 4.93354785 -135.66074512 4.85795641 -116.6719532 4.76428509 C-107.48899612 4.71937796 -98.30607739 4.67995162 -89.12304688 4.65356445 C-81.11626742 4.63054316 -73.10960982 4.59709912 -65.10292709 4.55129844 C-60.86602545 4.52742182 -56.62924408 4.50865669 -52.39227676 4.50238609 C-48.39820985 4.49630996 -44.40445043 4.47621964 -40.41049767 4.44572449 C-38.95051781 4.43698457 -37.49049771 4.43321323 -36.03049278 4.43499184 C-27.76026835 4.44188119 -20.78203022 3.78822069 -13 1 C-4.26275524 -1.33808461 -4.26275524 -1.33808461 0 0 Z " fill="#A37347" transform="translate(244,319)"/>
<path d="M0 0 C0.33 0 0.66 0 1 0 C1.33 3.96 1.66 7.92 2 12 C2.66 12 3.32 12 4 12 C4.99 16.95 5.98 21.9 7 27 C4 24 4 24 2 21 C0.91260787 28.07239842 0.81650424 35.03993939 0.8125 42.1875 C0.80025391 43.34958984 0.78800781 44.51167969 0.77539062 45.70898438 C0.77345703 46.82982422 0.77152344 47.95066406 0.76953125 49.10546875 C0.76542236 50.11762451 0.76131348 51.12978027 0.75708008 52.17260742 C1.01257227 55.14633116 1.85450224 57.26596428 3 60 C2.95875 61.06734375 2.9175 62.1346875 2.875 63.234375 C3.04124867 68.24261618 4.83829869 71.79514257 7 76.25 C7.75486463 77.8362358 8.50508235 79.42469373 9.25 81.015625 C9.58515625 81.70946289 9.9203125 82.40330078 10.265625 83.11816406 C11 85 11 85 11 88 C7.16391975 83.0352771 4.73620241 78.49441096 2.75 72.5625 C2.36714844 71.49418945 2.36714844 71.49418945 1.9765625 70.40429688 C-1.12161989 61.42772105 -1.14925852 52.63604016 -1.1328125 43.22265625 C-1.13376923 42.01556503 -1.13472595 40.80847382 -1.13571167 39.56480408 C-1.13638948 37.0274958 -1.13456312 34.49018576 -1.13037109 31.95288086 C-1.12498444 28.05123059 -1.13034631 24.14969374 -1.13671875 20.24804688 C-1.13605854 17.78124974 -1.13477856 15.31445269 -1.1328125 12.84765625 C-1.13584885 11.08845604 -1.13584885 11.08845604 -1.13894653 9.29371643 C-1.13579437 8.21847214 -1.13264221 7.14322784 -1.12939453 6.03540039 C-1.12859894 5.08468155 -1.12780334 4.13396271 -1.12698364 3.1544342 C-1 1 -1 1 0 0 Z " fill="#E1B16A" transform="translate(69,68)"/>
<path d="M0 0 C4.75 0.875 4.75 0.875 7 2 C7 2.66 7 3.32 7 4 C8.2684375 4.2475 8.2684375 4.2475 9.5625 4.5 C14.41676919 6.61822656 16.80752008 9.8685554 20 14 C20.60199219 14.74507812 21.20398438 15.49015625 21.82421875 16.2578125 C32.15614504 29.839477 33.86107344 44.42758412 32 61 C31.3267507 64.98131374 30.43406691 68.85452291 29.375 72.75 C29.13998779 73.63695557 28.90497559 74.52391113 28.6628418 75.43774414 C27.32501753 79.78535253 26.72327596 81.53189439 22.7890625 84.078125 C21.86867188 84.38234375 20.94828125 84.6865625 20 85 C21.2690509 81.67824464 22.72635389 78.61311318 24.4375 75.5 C30.74897383 62.89572535 31.93351144 48.64654041 28.1015625 35.109375 C22.94729081 20.5604379 15.5316222 10.7573485 2.34375 2.53125 C1.5703125 2.0259375 0.796875 1.520625 0 1 C0 0.67 0 0.34 0 0 Z " fill="#875935" transform="translate(236,63)"/>
<path d="M0 0 C0.33 0 0.66 0 1 0 C1.13277344 1.13179688 1.26554687 2.26359375 1.40234375 3.4296875 C1.5805342 4.91148179 1.75893029 6.39325136 1.9375 7.875 C2.06801758 8.99455078 2.06801758 8.99455078 2.20117188 10.13671875 C2.63326063 14.1953231 2.63326063 14.1953231 4 18 C4.35294118 24.47058824 4.35294118 24.47058824 2 28 C1.70863623 30.89240518 1.70863623 30.89240518 1.77294922 34.21557617 C1.77310028 35.4966777 1.77325134 36.77777924 1.77340698 38.09770203 C1.78362027 39.49612584 1.79405226 40.89454808 1.8046875 42.29296875 C1.80841822 43.72357485 1.81126491 45.15418352 1.81326294 46.58479309 C1.82089478 50.34792144 1.84053931 54.11089511 1.8626709 57.8739624 C1.88313906 61.71478178 1.89226673 65.55562617 1.90234375 69.39648438 C1.92378571 76.93106006 1.95791613 84.46550834 2 92 C2.66 92.33 3.32 92.66 4 93 C3.40380045 97.86896303 2.43023178 102.32790951 1 107 C0.67 107 0.34 107 0 107 C0 71.69 0 36.38 0 0 Z " fill="#A87545" transform="translate(68,124)"/>
<path d="M0 0 C0.66 0 1.32 0 2 0 C2.90425521 2.50673279 3.09182674 3.71678699 2.2578125 6.2890625 C1.88398437 7.05992187 1.51015625 7.83078125 1.125 8.625 C0.75632812 9.40101563 0.38765625 10.17703125 0.0078125 10.9765625 C-0.66042734 12.31822233 -1.3296873 13.6593746 -2 15 C-2.66 15 -3.32 15 -4 15 C-4.12375 16.03125 -4.2475 17.0625 -4.375 18.125 C-5 22 -5 22 -5.9375 24.53125 C-7.43121619 29.40779404 -7.98640454 34.32488285 -8.625 39.375 C-8.7590625 40.39722656 -8.893125 41.41945313 -9.03125 42.47265625 C-9.35946188 44.98113278 -9.68221324 47.49018513 -10 50 C-10.66 50 -11.32 50 -12 50 C-14.63549407 42.09351778 -13.27086394 34.63276119 -9.87890625 27.24609375 C-8.66584272 24.1460425 -8.93660593 21.29649163 -9 18 C-7.6695963 14.67399076 -6.18161142 12.22563843 -3.9375 9.4375 C-1.62012045 6.52208702 0 3.78889253 0 0 Z " fill="#E8C880" transform="translate(98,255)"/>
<path d="M0 0 C12.87 0 25.74 0 39 0 C39 0.66 39 1.32 39 2 C37 4 37 4 33.46826172 4.22705078 C31.95536669 4.22673363 30.44244912 4.21540633 28.9296875 4.1953125 C28.13345978 4.1924826 27.33723206 4.18965271 26.51687622 4.18673706 C23.96943237 4.1755264 21.42233789 4.15042062 18.875 4.125 C17.14974465 4.11497133 15.42448381 4.10584528 13.69921875 4.09765625 C9.46601086 4.07558422 5.2330647 4.04104867 1 4 C0.67 2.68 0.34 1.36 0 0 Z " fill="#FEF1A6" transform="translate(106,306)"/>
<path d="M0 0 C13.6384732 -0.04628067 27.2769278 -0.08184747 40.91546345 -0.10362434 C47.24795105 -0.11407459 53.58038505 -0.12825644 59.9128418 -0.15087891 C66.02065243 -0.17256301 72.12841141 -0.18455927 78.23625755 -0.18975449 C80.56992596 -0.19345822 82.90359144 -0.20069038 85.23723793 -0.21146011 C88.4984721 -0.22591603 91.75949106 -0.22798041 95.02075195 -0.22705078 C95.99179367 -0.23424133 96.96283539 -0.24143188 97.96330261 -0.24884033 C99.29471786 -0.24471634 99.29471786 -0.24471634 100.6530304 -0.24050903 C101.81034149 -0.24327441 101.81034149 -0.24327441 102.9910326 -0.24609566 C105 0 105 0 108 2 C107.06705612 1.99777939 106.13411224 1.99555878 105.17289734 1.99327087 C96.3882958 1.97301457 87.60369898 1.95801583 78.8190794 1.94818783 C74.30263484 1.94296535 69.78620911 1.93587916 65.26977539 1.92456055 C60.91260912 1.91370919 56.55546098 1.90771837 52.19828224 1.90512276 C50.53448005 1.90327258 48.87067887 1.89965973 47.20688438 1.89426994 C44.87968157 1.88702971 42.55255403 1.88601033 40.2253418 1.88647461 C39.53482224 1.88287933 38.84430267 1.87928406 38.13285828 1.87557983 C35.13284506 1.88207244 32.87290974 2.04236342 30 3 C28.32828182 2.69300291 26.66187282 2.35646544 25 2 C23.19669646 1.92219928 21.39088921 1.89205055 19.5859375 1.90234375 C18.57789062 1.90556641 17.56984375 1.90878906 16.53125 1.91210938 C14.96890625 1.92467773 14.96890625 1.92467773 13.375 1.9375 C12.32570313 1.94201172 11.27640625 1.94652344 10.1953125 1.95117188 C8.25438298 1.95988117 6.31346081 1.97064526 4.37255859 1.98413086 C2.58173798 1.99610898 0.79086068 2 -1 2 C-0.67 1.34 -0.34 0.68 0 0 Z " fill="#F8CD89" transform="translate(104,38)"/>
<path d="M0 0 C0.33 0 0.66 0 1 0 C1.54308106 4.79137641 -0.03381915 7.03605499 -2.875 10.8125 C-3.59429687 11.78832031 -4.31359375 12.76414062 -5.0546875 13.76953125 C-5.69664062 14.50558594 -6.33859375 15.24164063 -7 16 C-7.66 16 -8.32 16 -9 16 C-9 16.66 -9 17.32 -9 18 C-11.66076113 20.42473606 -14.64893479 22.45283353 -17.5625 24.5625 C-18.36236328 25.16513672 -19.16222656 25.76777344 -19.98632812 26.38867188 C-24.72154296 29.83281589 -28.10125597 31.80205557 -34 32 C-34 31.01 -34 30.02 -34 29 C-32.865625 28.87625 -31.73125 28.7525 -30.5625 28.625 C-29.386875 28.41875 -28.21125 28.2125 -27 28 C-26.67 27.34 -26.34 26.68 -26 26 C-25.01 25.67 -24.02 25.34 -23 25 C-20.56677656 22.78797869 -18.83318214 20.74977321 -17 18 C-16.01 18.33 -15.02 18.66 -14 19 C-13.67 17.35 -13.34 15.7 -13 14 C-12.34 14 -11.68 14 -11 14 C-11 13.34 -11 12.68 -11 12 C-10.38125 11.54625 -9.7625 11.0925 -9.125 10.625 C-6.86557722 8.89720611 -6.07249699 7.59186772 -5 5 C-4.34 5.33 -3.68 5.66 -3 6 C-2.01 4.02 -1.02 2.04 0 0 Z " fill="#F4D99D" transform="translate(274,285)"/>
<path d="M0 0 C0.495 0.99 0.495 0.99 1 2 C0.566875 2.515625 0.13375 3.03125 -0.3125 3.5625 C-2.15868524 6.01005542 -2.15868524 6.01005542 -3.1875 9.25 C-5.17808041 14.09025341 -8.77724665 17.9679004 -13 21 C-14.99014386 21.38786406 -16.99203724 21.71858098 -19 22 C-20.91587296 22.8082175 -22.81206126 23.66443861 -24.6875 24.5625 C-30.63265174 27.15187773 -35.59118328 27.56771014 -42 27 C-42 26.67 -42 26.34 -42 26 C-41.22398437 25.86464844 -40.44796875 25.72929687 -39.6484375 25.58984375 C-24.40451832 22.55197441 -11.13556363 15.70624372 -1.875 2.9375 C-1.25625 1.968125 -0.6375 0.99875 0 0 Z " fill="#B79362" transform="translate(258,277)"/>
<path d="M0 0 C0.33 0 0.66 0 1 0 C1.81373388 5.56736447 2.08851549 10.82189312 1.87890625 16.4375 C1.85529526 17.20304199 1.83168427 17.96858398 1.80735779 18.75732422 C1.73156654 21.17177923 1.64718612 23.58584232 1.5625 26 C1.50919433 27.64972122 1.45645473 29.29946084 1.40429688 30.94921875 C1.27606797 34.96638795 1.14014207 38.98322948 1 43 C1.66 43 2.32 43 3 43 C2.85691406 43.69480469 2.71382813 44.38960938 2.56640625 45.10546875 C1.96733421 48.16693345 1.44485302 51.23455833 0.9375 54.3125 C0.76089844 55.38113281 0.58429688 56.44976562 0.40234375 57.55078125 C0.26957031 58.35902344 0.13679688 59.16726563 0 60 C-0.33 60 -0.66 60 -1 60 C-1.02312821 52.32463373 -1.04091753 44.64927104 -1.05181217 36.97387791 C-1.05703995 33.41022578 -1.06413569 29.84659743 -1.07543945 26.28295898 C-1.08834176 22.18993903 -1.09322906 18.0969442 -1.09765625 14.00390625 C-1.10281754 12.71851456 -1.10797882 11.43312286 -1.11329651 10.10877991 C-1.11337204 8.92763107 -1.11344757 7.74648224 -1.11352539 6.52954102 C-1.115746 5.48363297 -1.11796661 4.43772491 -1.12025452 3.36012268 C-1 1 -1 1 0 0 Z " fill="#FBCA7C" transform="translate(70,228)"/>
<path d="M0 0 C1.82675041 2.74012562 2.64237877 4.64760172 3.5625 7.75 C3.81128906 8.56984375 4.06007813 9.3896875 4.31640625 10.234375 C5.88586347 16.5839505 6.15695799 22.75187575 6.125 29.25 C6.12886719 30.05179688 6.13273437 30.85359375 6.13671875 31.6796875 C6.13110903 35.03429935 6.06784228 37.79647317 5 41 C4.34 41 3.68 41 3 41 C3 41.99 3 42.98 3 44 C2.34 44 1.68 44 1 44 C0.94550162 42.27119018 0.90698312 40.54187288 0.875 38.8125 C0.85179687 37.84957031 0.82859375 36.88664062 0.8046875 35.89453125 C1.00987781 32.8536109 1.79635381 30.77585071 3 28 C3.63870458 20.33554501 2.36912052 11.96100729 -0.1328125 4.72265625 C-1 2 -1 2 0 0 Z " fill="#EAD79B" transform="translate(282,88)"/>
<path d="M0 0 C1.02971924 -0.00918457 2.05943848 -0.01836914 3.12036133 -0.02783203 C9.01283295 -0.00401637 14.10382763 0.54804374 19.75 2.25 C19.75 2.91 19.75 3.57 19.75 4.25 C18.48800781 4.09144531 17.22601563 3.93289062 15.92578125 3.76953125 C-2.86185912 1.70483449 -21.55493898 3.0861084 -39.30908203 9.76831055 C-41.25 10.25 -41.25 10.25 -44.25 9.25 C-40.26725489 6.32932025 -36.51655864 5.55935728 -31.75 4.77734375 C-29.08181418 4.2145233 -26.77242165 3.27560001 -24.25 2.25 C-16.30401699 0.0344247 -8.18816827 0.04092534 0 0 Z " fill="#A37548" transform="translate(209.25,189.75)"/>
<path d="M0 0 C4.23269578 1.51167706 5.66268097 4.30552799 8 8 C9.67595511 9.86933454 10.75911617 10.87955808 13 12 C13 12.99 13 13.98 13 15 C13.99 15 14.98 15 16 15 C17.06775224 16.96466413 18.06553465 18.96855359 19 21 C18.67 21.66 18.34 22.32 18 23 C12.7697484 18.05590198 8.30143623 12.76575494 4 7 C4.76276595 9.08630053 5.53554157 11.1689432 6.3125 13.25 C6.74175781 14.41015625 7.17101562 15.5703125 7.61328125 16.765625 C8.82598565 19.5941299 10.02942974 21.66536544 12 24 C11.67 24.66 11.34 25.32 11 26 C5.6277716 22.63206124 4.43776848 18.78188955 2.6875 13 C2.42388672 12.19304687 2.16027344 11.38609375 1.88867188 10.5546875 C0.68683594 6.77124555 0 4.03452907 0 0 Z " fill="#8D5D2A" transform="translate(88,123)"/>
<path d="M0 0 C3.76148003 1.11827785 7.22168646 2.5592365 10.75 4.25 C18.56972651 7.88329872 26.8010668 10.37525901 35 13 C35 13.33 35 13.66 35 14 C32.72942623 14.05398987 30.45848712 14.09278742 28.1875 14.125 C26.29064453 14.15980469 26.29064453 14.15980469 24.35546875 14.1953125 C21 14 21 14 18 12 C18 11.34 18 10.68 18 10 C17.319375 9.87625 16.63875 9.7525 15.9375 9.625 C11.06902952 8.58915522 6.36696753 7.44550181 2 5 C2 4.34 2 3.68 2 3 C1.34 2.67 0.68 2.34 0 2 C0 1.34 0 0.68 0 0 Z " fill="#A66D41" transform="translate(149,153)"/>
<path d="M0 0 C0 4.51900237 -2.43617789 7.99557842 -4.51171875 11.90625 C-6.50933133 15.74395298 -6.50933133 15.74395298 -7 20 C-6.44570312 19.28972656 -5.89140625 18.57945312 -5.3203125 17.84765625 C-4.23363281 16.46900391 -4.23363281 16.46900391 -3.125 15.0625 C-2.40570313 14.14597656 -1.68640625 13.22945312 -0.9453125 12.28515625 C1 10 1 10 3 9 C1.49225858 14.73677223 0.38686254 18.82313235 -5 22 C-5.66 22 -6.32 22 -7 22 C-7.99 24.475 -7.99 24.475 -9 27 C-9.66 27 -10.32 27 -11 27 C-11.13452001 22.56083956 -10.68979724 18.58906387 -9.75 14.25 C-9.40195313 12.55617187 -9.40195313 12.55617187 -9.046875 10.828125 C-8 8 -8 8 -6.03125 6.8046875 C-5.3609375 6.53914062 -4.690625 6.27359375 -4 6 C-1.75592746 2.96798075 -1.75592746 2.96798075 0 0 Z " fill="#A06C3A" transform="translate(99,212)"/>
<path d="M0 0 C0.66 0 1.32 0 2 0 C0.61402852 4.34183483 -1.03254285 8.49356403 -2.8125 12.6875 C-5.26735875 18.66187495 -7.16911086 24.69262128 -8.8125 30.9375 C-9.12247925 32.10768677 -9.12247925 32.10768677 -9.4387207 33.30151367 C-10.67841819 38.18578629 -11.66287042 42.96516317 -12 48 C-11.34 48.66 -10.68 49.32 -10 50 C-11.32 50 -12.64 50 -14 50 C-14.39893486 38.03195427 -11.75861089 27.31232404 -8 16 C-7.34 16 -6.68 16 -6 16 C-5.81824219 15.34773438 -5.63648437 14.69546875 -5.44921875 14.0234375 C-4.02533404 9.07269989 -2.50592766 4.53453577 0 0 Z " fill="#825129" transform="translate(102,254)"/>
<path d="M0 0 C5.56091281 8.34136921 4.38903855 19.16442173 3.75 28.75 C2.74211435 33.11750448 0.95859254 36.98260786 -1 41 C-1.66 41 -2.32 41 -3 41 C-3.99 43.475 -3.99 43.475 -5 46 C-5.33 45.34 -5.66 44.68 -6 44 C-5.30364086 42.11659829 -4.51666175 40.26632718 -3.6875 38.4375 C1.77791859 25.65449319 1.73263752 13.70640034 0 0 Z " fill="#8C643C" transform="translate(265,231)"/>
<path d="M0 0 C0.556875 0.185625 1.11375 0.37125 1.6875 0.5625 C4.399133 1.07551165 6.34371039 0.6640724 9 0 C5.6058872 2.76620193 1.88440183 4.65864481 -2 6.625 C-9.29012911 10.4060877 -15.54277381 14.9154177 -22 20 C-24.31575496 21.69349428 -26.65466426 23.34760437 -29 25 C-27.95125002 22.37812506 -27.35068687 21.20628639 -24.875 19.75 C-24.25625 19.5025 -23.6375 19.255 -23 19 C-23 18.34 -23 17.68 -23 17 C-19.86319552 14.79932971 -16.66604928 12.75360151 -13.41992188 10.72070312 C-12.74638672 10.28822266 -12.07285156 9.85574219 -11.37890625 9.41015625 C-10.7557251 9.01965088 -10.13254395 8.62914551 -9.49047852 8.22680664 C-7.69481335 6.97028664 -7.69481335 6.97028664 -7 4 C-5.35 4 -3.7 4 -2 4 C-1.34 2.68 -0.68 1.36 0 0 Z " fill="#906037" transform="translate(156,200)"/>
<path d="M0 0 C0.99 0.33 1.98 0.66 3 1 C-0.59678395 4.14718596 -4.17427374 7.15805503 -8.0625 9.9375 C-14.63416496 14.82184558 -18.89003714 20.99851459 -23 28 C-24 25 -24 25 -22.890625 22.6953125 C-22.34921875 21.84710938 -21.8078125 20.99890625 -21.25 20.125 C-20.71890625 19.28195313 -20.1878125 18.43890625 -19.640625 17.5703125 C-19.09921875 16.72210938 -18.5578125 15.87390625 -18 15 C-17.52046875 14.06929687 -17.0409375 13.13859375 -16.546875 12.1796875 C-16.03640625 11.46039063 -15.5259375 10.74109375 -15 10 C-13.68 10 -12.36 10 -11 10 C-10.731875 9.401875 -10.46375 8.80375 -10.1875 8.1875 C-7.89763861 3.96933428 -5.45103624 2.63985546 -1 1 C-0.67 0.67 -0.34 0.34 0 0 Z " fill="#DBAA64" transform="translate(100,186)"/>
<path d="M0 0 C1.58357459 0.31127516 3.16684993 0.62407289 4.75 0.9375 C5.63171875 1.11152344 6.5134375 1.28554688 7.421875 1.46484375 C9.63235053 1.92368488 11.81512068 2.43336074 14 3 C14 2.34 14 1.68 14 1 C16.97 1 19.94 1 23 1 C23.33 1.99 23.66 2.98 24 4 C29.28 4 34.56 4 40 4 C40 4.33 40 4.66 40 5 C35.58919646 5.02490464 31.17843129 5.04295604 26.76757812 5.05493164 C25.27017503 5.05992943 23.77277673 5.0667299 22.27539062 5.07543945 C20.11066495 5.08770623 17.94600435 5.09327397 15.78125 5.09765625 C13.8331543 5.10551147 13.8331543 5.10551147 11.84570312 5.11352539 C7.81913327 4.9946608 3.98584904 4.56026769 0 4 C0 2.68 0 1.36 0 0 Z " fill="#DEB877" transform="translate(69,319)"/>
<path d="M0 0 C0.515625 0.268125 1.03125 0.53625 1.5625 0.8125 C4.66401415 2.32349407 7.82262806 3.65572726 11 5 C11 5.66 11 6.32 11 7 C11.763125 7.144375 12.52625 7.28875 13.3125 7.4375 C16 8 16 8 19 9 C19 9.66 19 10.32 19 11 C19.99 11.33 20.98 11.66 22 12 C21.67 13.32 21.34 14.64 21 16 C18.03 16.33 15.06 16.66 12 17 C15.75 14 15.75 14 18 14 C16.09672977 11.56804359 15.25929447 11.03382102 12.125 10.625 C8.04969844 9.80993969 6.71654181 8.07398152 4 5 C3.236875 4.2575 2.47375 3.515 1.6875 2.75 C0 1 0 1 0 0 Z " fill="#CBA54D" transform="translate(135,168)"/>
<path d="M0 0 C6.10146925 -0.0497018 12.20281877 -0.08586193 18.30444336 -0.10986328 C20.37705541 -0.11987668 22.44965349 -0.13349135 24.5222168 -0.15087891 C27.51354434 -0.17533313 30.50468394 -0.18653 33.49609375 -0.1953125 C34.41208847 -0.20563507 35.32808319 -0.21595764 36.27183533 -0.22659302 C41.95530193 -0.22756839 47.63483012 -0.05985596 53 2 C55.0625 4.125 55.0625 4.125 56 6 C55.01136963 5.71995117 54.02273926 5.43990234 53.00415039 5.15136719 C41.41616323 2.04937037 30.39038162 1.34588171 18.4375 1.25 C16.63604031 1.22174818 14.83460628 1.19180847 13.03320312 1.16015625 C8.6888501 1.08740301 4.3447971 1.03717062 0 1 C0 0.67 0 0.34 0 0 Z " fill="#75421D" transform="translate(180,57)"/>
<path d="M0 0 C5.65611463 -0.56561146 9.22642128 1.28608722 14 4 C10.68131409 5.02245821 7.81716411 5.04443871 4.359375 4.87890625 C2.75449219 4.80639648 2.75449219 4.80639648 1.1171875 4.73242188 C-0.54957031 4.64831055 -0.54957031 4.64831055 -2.25 4.5625 C-3.93996094 4.48418945 -3.93996094 4.48418945 -5.6640625 4.40429688 C-8.44299972 4.27477014 -11.22156424 4.13980947 -14 4 C-14 3.34 -14 2.68 -14 2 C-4.58997722 0.66742597 -4.58997722 0.66742597 0 2 C0 1.34 0 0.68 0 0 Z " fill="#FCDC95" transform="translate(211,186)"/>
<path d="M0 0 C0.66 0 1.32 0 2 0 C2.27880005 0.87567627 2.27880005 0.87567627 2.56323242 1.76904297 C6.93824081 15.93801357 6.93824081 15.93801357 13.15234375 29.35546875 C14 31 14 31 14 33 C13.34 33 12.68 33 12 33 C10.36915673 29.6277935 8.74638276 26.2517641 7.125 22.875 C6.43470703 21.44800781 6.43470703 21.44800781 5.73046875 19.9921875 C-0.34794315 7.30680614 -0.34794315 7.30680614 0 0 Z " fill="#845830" transform="translate(91,76)"/>
<path d="M0 0 C0.66 0 1.32 0 2 0 C-2.42729466 12.49674798 -16.56638872 22.16539352 -28 28 C-28.66 27.67 -29.32 27.34 -30 27 C-27.25322042 25.0371187 -24.50203192 23.08050886 -21.75 21.125 C-20.97269531 20.56941406 -20.19539062 20.01382812 -19.39453125 19.44140625 C-18.64042969 18.90644531 -17.88632812 18.37148438 -17.109375 17.8203125 C-16.41811523 17.32805176 -15.72685547 16.83579102 -15.01464844 16.32861328 C-13.06697419 15.0441679 -11.10745816 13.99587729 -9 13 C-9 12.34 -9 11.68 -9 11 C-8.34 11 -7.68 11 -7 11 C-6.773125 10.29875 -6.54625 9.5975 -6.3125 8.875 C-4.66158712 5.25871465 -2.7091165 2.91230024 0 0 Z " fill="#986C47" transform="translate(274,290)"/>
<path d="M0 0 C3.91943343 3.25229583 7.55732182 6.5544657 11.0625 10.25 C15.39352453 14.66330652 20.13574282 18.15217419 25.21508789 21.63769531 C28.04305566 23.57863585 30.70180275 25.43726205 33 28 C27.54210956 27.61921695 25.65759878 25.93191869 22 22 C21.13117188 21.45214844 20.26234375 20.90429688 19.3671875 20.33984375 C14.91658642 17.44804455 11.34147744 13.63180088 7.625 9.875 C6.88894531 9.14667969 6.15289062 8.41835937 5.39453125 7.66796875 C4.69972656 6.97058594 4.00492187 6.27320313 3.2890625 5.5546875 C2.65693848 4.92030762 2.02481445 4.28592773 1.37353516 3.63232422 C0 2 0 2 0 0 Z " fill="#875635" transform="translate(116,125)"/>
<path d="M0 0 C0.66 0.33 1.32 0.66 2 1 C1.53851563 1.41507813 1.07703125 1.83015625 0.6015625 2.2578125 C-7.67217961 10.07371908 -13.74596634 19.56157305 -20 29 C-20.6875 27.25 -20.6875 27.25 -21 25 C-19.6875 22.75 -19.6875 22.75 -18 21 C-17.34 21 -16.68 21 -16 21 C-15.91621094 20.45859375 -15.83242187 19.9171875 -15.74609375 19.359375 C-14.74149281 16.18252177 -13.02577067 13.93396497 -11.0625 11.25 C-9.99708984 9.77273437 -9.99708984 9.77273437 -8.91015625 8.265625 C-8.27980469 7.51796875 -7.64945313 6.7703125 -7 6 C-6.34 6 -5.68 6 -5 6 C-5 5.34 -5 4.68 -5 4 C-3.37373596 2.61767557 -1.7074998 1.28062485 0 0 Z " fill="#906944" transform="translate(125,225)"/>
<path d="M0 0 C0.66 0.33 1.32 0.66 2 1 C-3.625 5 -3.625 5 -7 5 C-7 5.66 -7 6.32 -7 7 C-8.96875 8.5078125 -8.96875 8.5078125 -11.5 10.125 C-12.75296875 10.93324219 -12.75296875 10.93324219 -14.03125 11.7578125 C-15.00578125 12.37269531 -15.00578125 12.37269531 -16 13 C-16.66 12.67 -17.32 12.34 -18 12 C-17.34 11.34 -16.68 10.68 -16 10 C-18.64 10.33 -21.28 10.66 -24 11 C-23.67 10.34 -23.34 9.68 -23 9 C-19.9375 8.375 -19.9375 8.375 -17 8 C-17 7.34 -17 6.68 -17 6 C-15.68 6 -14.36 6 -13 6 C-12.67 5.34 -12.34 4.68 -12 4 C-11.01 4.33 -10.02 4.66 -9 5 C-6.73113579 3.98337813 -6.73113579 3.98337813 -4.4375 2.5 C-2.05859375 1.03125 -2.05859375 1.03125 0 0 Z " fill="#BE984A" transform="translate(145,185)"/>
<path d="M0 0 C0.99 0 1.98 0 3 0 C3.33 0.99 3.66 1.98 4 3 C3.01 3 2.02 3 1 3 C1.16242188 3.55042969 1.32484375 4.10085937 1.4921875 4.66796875 C2.92757674 11.25971779 2.17155365 18.41001074 1 25 C5.455 21.535 5.455 21.535 10 18 C10.66 18.33 11.32 18.66 12 19 C10.57084149 20.34227046 9.13137328 21.67357096 7.6875 23 C6.48673828 24.11375 6.48673828 24.11375 5.26171875 25.25 C3 27 3 27 0 27 C0 18.09 0 9.18 0 0 Z " fill="#7F461D" transform="translate(87,167)"/>
<path d="M0 0 C6.6 0 13.2 0 20 0 C20 0.66 20 1.32 20 2 C18 4 18 4 15.8984375 4.265625 C10.25555705 4.23068456 5.41418859 3.60420403 0 2 C0 1.34 0 0.68 0 0 Z " fill="#FDE094" transform="translate(125,306)"/>
<path d="M0 0 C-0.33 0.66 -0.66 1.32 -1 2 C-1.66 2 -2.32 2 -3 2 C-3.33 2.99 -3.66 3.98 -4 5 C-4.66 5 -5.32 5 -6 5 C-6 5.66 -6 6.32 -6 7 C-6.66 7 -7.32 7 -8 7 C-8.28875 7.598125 -8.5775 8.19625 -8.875 8.8125 C-10 11 -10 11 -12 14 C-12.66 14 -13.32 14 -14 14 C-13.49396008 11.83125748 -13.00016187 10.00032373 -12 8 C-12 6.68 -12 5.36 -12 4 C-11.01 3.67 -10.02 3.34 -9 3 C-8.525625 2.505 -8.05125 2.01 -7.5625 1.5 C-5.12415552 -0.8408107 -3.06090772 -1.53045386 0 0 Z " fill="#F9EBAA" transform="translate(126,224)"/>
<path d="M0 0 C6.25181392 6.25181392 5.8742777 19.68298661 6 28 C5.8183621 31.36241318 5.49869331 34.67026312 5 38 C4.67 38 4.34 38 4 38 C3.95101563 36.90042969 3.90203125 35.80085938 3.8515625 34.66796875 C3.67131417 20.95372263 3.67131417 20.95372263 0 8 C-0.13415472 5.3276379 -0.04318541 2.67749512 0 0 Z " fill="#8D6642" transform="translate(284,87)"/>
<path d="M0 0 C5.62335936 -0.04946121 11.2465919 -0.08574868 16.87011719 -0.10986328 C18.78290004 -0.1199169 20.69566755 -0.13356173 22.60839844 -0.15087891 C25.35876252 -0.17515522 28.10892328 -0.1864895 30.859375 -0.1953125 C32.14083405 -0.21079636 32.14083405 -0.21079636 33.44818115 -0.22659302 C34.24870911 -0.22674408 35.04923706 -0.22689514 35.87402344 -0.22705078 C36.92659332 -0.23371262 36.92659332 -0.23371262 38.00042725 -0.24050903 C40.33872645 0.04074209 41.96267675 0.84714899 44 2 C42.86111328 1.98259766 42.86111328 1.98259766 41.69921875 1.96484375 C40.70535156 1.95582031 39.71148437 1.94679687 38.6875 1.9375 C37.70136719 1.92589844 36.71523437 1.91429687 35.69921875 1.90234375 C32.90036151 1.87670138 32.90036151 1.87670138 30 3 C28.32828182 2.69300291 26.66187282 2.35646544 25 2 C23.19669646 1.92219928 21.39088921 1.89205055 19.5859375 1.90234375 C18.57789062 1.90556641 17.56984375 1.90878906 16.53125 1.91210938 C14.96890625 1.92467773 14.96890625 1.92467773 13.375 1.9375 C12.32570313 1.94201172 11.27640625 1.94652344 10.1953125 1.95117188 C8.25438298 1.95988117 6.31346081 1.97064526 4.37255859 1.98413086 C2.58173798 1.99610898 0.79086068 2 -1 2 C-0.67 1.34 -0.34 0.68 0 0 Z " fill="#FCD996" transform="translate(104,38)"/>
<path d="M0 0 C1.26977059 3.80931176 0.52074507 5.81618993 -0.4375 9.6875 C-0.86869141 11.45673828 -0.86869141 11.45673828 -1.30859375 13.26171875 C-1.53675781 14.16535156 -1.76492187 15.06898438 -2 16 C-1.54625 15.54625 -1.0925 15.0925 -0.625 14.625 C0.58333333 13.41666667 1.79166667 12.20833333 3 11 C3.33 12.65 3.66 14.3 4 16 C2.68 16.99 1.36 17.98 0 19 C-1.32 18.34 -2.64 17.68 -4 17 C-4.20612487 11.22850374 -3.74451341 6.52429247 -2 1 C-1.34 0.67 -0.68 0.34 0 0 Z " fill="#DFB669" transform="translate(90,223)"/>
<path d="M0 0 C1 3 1 3 -0.125 5.4375 C-2 8 -2 8 -4.4375 9.9375 C-7.20413512 11.94692742 -7.20413512 11.94692742 -9.125 15.25 C-9.74375 16.1575 -10.3625 17.065 -11 18 C-11.99 18 -12.98 18 -14 18 C-13.6875 16.0625 -13.6875 16.0625 -13 14 C-12.01 13.67 -11.02 13.34 -10 13 C-8.7196772 11.04032958 -8.7196772 11.04032958 -7.625 8.6875 C-5.60795026 4.83732604 -3.69666225 2.42923519 0 0 Z " fill="#C99459" transform="translate(105,202)"/>
<path d="M0 0 C0.33 0.99 0.66 1.98 1 3 C1.99 3 2.98 3 4 3 C4.99 7.95 5.98 12.9 7 18 C4 15 4 15 2 12 C1.67 14.64 1.34 17.28 1 20 C0.67 20 0.34 20 0 20 C0 13.4 0 6.8 0 0 Z " fill="#F0C36E" transform="translate(69,77)"/>
<path d="M0 0 C3.82097239 0.53069061 6.06171403 1.49701566 9 4 C7.19587357 7.26460973 6.16605307 8.88929795 3 11 C3 10.34 3 9.68 3 9 C2.21625 9.515625 1.4325 10.03125 0.625 10.5625 C-0.24125 11.036875 -1.1075 11.51125 -2 12 C-2.66 11.67 -3.32 11.34 -4 11 C-1.79020692 8.18060883 0.40062046 5.46941056 3 3 C2.01 2.01 1.02 1.02 0 0 Z " fill="#CC9C58" transform="translate(100,177)"/>
<path d="M0 0 C0.89332031 0.13921875 1.78664063 0.2784375 2.70703125 0.421875 C3.60808594 0.55078125 4.50914063 0.6796875 5.4375 0.8125 C6.12457031 0.93109375 6.81164062 1.0496875 7.51953125 1.171875 C7.51953125 1.501875 7.51953125 1.831875 7.51953125 2.171875 C4.54953125 2.171875 1.57953125 2.171875 -1.48046875 2.171875 C-1.31546875 3.161875 -1.15046875 4.151875 -0.98046875 5.171875 C-0.39572358 9.19920442 -0.40914851 13.10662123 -0.48046875 17.171875 C-2.421875 16.5078125 -2.421875 16.5078125 -4.48046875 15.171875 C-5.1953125 12.7109375 -5.1953125 12.7109375 -5.41796875 9.796875 C-5.50949219 8.84039062 -5.60101563 7.88390625 -5.6953125 6.8984375 C-5.37390327 2.81946217 -4.34117916 0.30080611 0 0 Z " fill="#D2AC69" transform="translate(89.48046875,53.828125)"/>
<path d="M0 0 C0.66 0.66 1.32 1.32 2 2 C1.86328125 4.27734375 1.86328125 4.27734375 1.3125 6.9375 C1.14363281 7.81277344 0.97476562 8.68804687 0.80078125 9.58984375 C-0.06738766 12.20282041 -0.99491552 13.18387636 -3 15 C-4.19027984 17.59915538 -4.19027984 17.59915538 -5 20 C-6.32435978 16.02692066 -5.18129186 13.19025432 -4.0625 9.3125 C-3.76956055 8.2596582 -3.76956055 8.2596582 -3.47070312 7.18554688 C-2.98800864 5.45491056 -2.49499154 3.72715934 -2 2 C-1.34 2 -0.68 2 0 2 C0 1.34 0 0.68 0 0 Z " fill="#ECD598" transform="translate(268,126)"/>
<path d="M0 0 C1.08904794 3.26714381 1.1550317 3.89029928 0 7 C-2.19650136 10.78707131 -3.77858966 13.49235345 -8 15 C-6.85520729 8.32204254 -5.04702952 4.64857982 0 0 Z " fill="#D7BB7D" transform="translate(108,213)"/>
<path d="M0 0 C11.09840302 3.2498984 18.78682531 11.30856976 26 20 C25.67 20.66 25.34 21.32 25 22 C23.99403703 21.0479279 22.99538437 20.08812654 22 19.125 C21.443125 18.59132813 20.88625 18.05765625 20.3125 17.5078125 C19 16 19 16 19 14 C18.443125 13.7525 17.88625 13.505 17.3125 13.25 C14.58111343 11.77357483 12.42466427 9.95027344 10 8 C7.34988505 6.14369828 4.68511785 4.31087597 2.01171875 2.48828125 C1.34785156 1.99714844 0.68398437 1.50601563 0 1 C0 0.67 0 0.34 0 0 Z " fill="#7E5331" transform="translate(247,45)"/>
<path d="M0 0 C1.15482399 3.386967 0.82816267 5.33038379 -0.3125 8.6875 C-1.39486402 12.02806895 -2.34134486 15.31288154 -3.0625 18.75 C-3.80537557 22.26461297 -4.78454503 25.61408972 -6 29 C-7.24659153 25.37434999 -6.78926902 22.54787577 -6.125 18.8125 C-5.94195312 17.74644531 -5.75890625 16.68039062 -5.5703125 15.58203125 C-5 13 -5 13 -4 12 C-3.87625 10.741875 -3.7525 9.48375 -3.625 8.1875 C-3.2392411 4.6650786 -2.51317118 2.6224395 0 0 Z " fill="#E5B95F" transform="translate(76,263)"/>
<path d="M0 0 C2.8125 0.1875 2.8125 0.1875 6 1 C7.6875 3.375 7.6875 3.375 9 6 C9.5775 6.515625 10.155 7.03125 10.75 7.5625 C11.36875 8.2740625 11.36875 8.2740625 12 9 C11.6875 11.1875 11.6875 11.1875 11 13 C10.34 13 9.68 13 9 13 C7.59765625 11.35546875 7.59765625 11.35546875 6.0625 9.1875 C4.56247678 7.08132929 3.16841488 5.16296959 1.30859375 3.36328125 C0 2 0 2 0 0 Z " fill="#F4E09F" transform="translate(250,70)"/>
<path d="M0 0 C0.66 0.33 1.32 0.66 2 1 C-7.18976251 12.2183537 -7.18976251 12.2183537 -14 15 C-14.66 14.67 -15.32 14.34 -16 14 C-13.89817699 12.03909808 -11.79367717 10.08121556 -9.6875 8.125 C-8.79514648 7.29162109 -8.79514648 7.29162109 -7.88476562 6.44140625 C-7.30791016 5.90644531 -6.73105469 5.37148437 -6.13671875 4.8203125 C-5.60780029 4.32805176 -5.07888184 3.83579102 -4.53393555 3.32861328 C-3 2 -3 2 0 0 Z " fill="#B89767" transform="translate(125,198)"/>
<path d="M0 0 C-1.00610773 2.70569083 -1.67131572 3.81218041 -4.21484375 5.265625 C-11.0011697 7.71921774 -16.80141049 8.50125575 -24 8 C-24 7.67 -24 7.34 -24 7 C-23.16597656 6.82984375 -22.33195313 6.6596875 -21.47265625 6.484375 C-15.19786306 5.13310224 -9.4690397 3.62381002 -3.70703125 0.76953125 C-2 0 -2 0 0 0 Z " fill="#A4774E" transform="translate(240,296)"/>
<path d="M0 0 C1.4049404 3.89060419 0.69513239 7.23092362 0.0625 11.25 C-0.13214844 12.51328125 -0.32679687 13.7765625 -0.52734375 15.078125 C-0.68332031 16.04234375 -0.83929688 17.0065625 -1 18 C-1.66 18 -2.32 18 -3 18 C-4.49491558 13.51525326 -5.15796289 8.4878504 -3.10546875 4.078125 C-2 2.4375 -2 2.4375 0 0 Z " fill="#D4AF6B" transform="translate(89,287)"/>
<path d="M0 0 C0.3689719 7.31110994 -0.18447274 13.21256822 -3 20 C-3.99 20 -4.98 20 -6 20 C-4.19109085 10.43587396 -4.19109085 10.43587396 -2.8125 6 C-1.67091366 3.10360646 -1.67091366 3.10360646 -3 1 C-1 0 -1 0 0 0 Z " fill="#F3DFA3" transform="translate(286,256)"/>
<path d="M0 0 C8.17477857 3.60547002 12.15776725 11.6372355 16.03125 19.265625 C17.04167422 22.11762885 17.10424427 23.23938933 16 26 C15.5153125 24.94941406 15.030625 23.89882812 14.53125 22.81640625 C10.92367173 15.19566935 7.46230381 8.57814251 1.46875 2.50390625 C0 1 0 1 0 0 Z " fill="#835A34" transform="translate(248,205)"/>
<path d="M0 0 C1.59715341 2.89608315 2.38739146 5.43400092 2.9375 8.6875 C3.85670001 13.63647288 5.28740608 18.27324078 7 23 C6.01 22.67 5.02 22.34 4 22 C4 21.34 4 20.68 4 20 C3.34 20 2.68 20 2 20 C0.2120463 13.1834265 -0.23668569 7.03482474 0 0 Z " fill="#DEB973" transform="translate(89,71)"/>
<path d="M0 0 C0.99386719 0.00902344 1.98773438 0.01804688 3.01171875 0.02734375 C4.15060547 0.04474609 4.15060547 0.04474609 5.3125 0.0625 C2.38419958 1.59637165 -0.41174434 2.55908235 -3.60546875 3.421875 C-7.73279269 4.69182083 -11.70118559 6.41022481 -15.6875 8.0625 C-15.0275 6.4125 -14.3675 4.7625 -13.6875 3.0625 C-12.6975 3.0625 -11.7075 3.0625 -10.6875 3.0625 C-10.0275 2.4025 -9.3675 1.7425 -8.6875 1.0625 C-5.53819107 0.01273036 -3.29935544 -0.03881595 0 0 Z " fill="#EFC17D" transform="translate(174.6875,193.9375)"/>
<path d="M0 0 C-9.39833403 3.52275038 -17.84441321 5.81161643 -28 6 C-28 5.67 -28 5.34 -28 5 C-4.48483672 -1.38224458 -4.48483672 -1.38224458 0 0 Z " fill="#966A41" transform="translate(244,319)"/>
<path d="M0 0 C7.59 0 15.18 0 23 0 C17.85143719 3.43237521 10.65280216 3.58610602 4.58984375 2.61328125 C2.6875 2.0625 2.6875 2.0625 0 1 C0 0.67 0 0.34 0 0 Z " fill="#FEDB91" transform="translate(193,306)"/>
<path d="M0 0 C0.33 0 0.66 0 1 0 C1.39169887 2.66355234 1.40564529 4.39224373 -0.11328125 6.66796875 C-1.36389317 8.1510888 -2.67864514 9.57954352 -4 11 C-5.32 10.67 -6.64 10.34 -8 10 C-7.01 8.35 -6.02 6.7 -5 5 C-4.34 5.33 -3.68 5.66 -3 6 C-2.01 4.02 -1.02 2.04 0 0 Z M-9 11 C-8.67 12.32 -8.34 13.64 -8 15 C-9.65 15 -11.3 15 -13 15 C-12.34 14.67 -11.68 14.34 -11 14 C-11 13.34 -11 12.68 -11 12 C-10.34 11.67 -9.68 11.34 -9 11 Z " fill="#FBECA6" transform="translate(274,285)"/>
<path d="M0 0 C0.66 0 1.32 0 2 0 C3.0835853 6.38111343 3.2906127 12.61427282 2 19 C1.34 19.33 0.68 19.66 0 20 C0 13.4 0 6.8 0 0 Z " fill="#FAEBA5" transform="translate(269,104)"/>
<path d="M0 0 C3.48336459 3.14352414 5.58752783 6.44513045 7.8125 10.5625 C8.43769531 11.69816406 9.06289063 12.83382812 9.70703125 14.00390625 C11 17 11 17 10 20 C8.51157487 17.60949904 7.03421905 15.21325565 5.5625 12.8125 C5.14162109 12.13896484 4.72074219 11.46542969 4.28710938 10.77148438 C2.11063712 7.20206988 0.4532743 4.24429573 0 0 Z " fill="#9F7752" transform="translate(273,67)"/>
<path d="M0 0 C0.66 0.99 1.32 1.98 2 3 C2.680625 3.33 3.36125 3.66 4.0625 4 C6 5 6 5 7 8 C7.66 8 8.32 8 9 8 C9 8.66 9 9.32 9 10 C10.65 10 12.3 10 14 10 C14 10.99 14 11.98 14 13 C9.11266533 11.89343366 6.75271921 11.19461974 4 7 C3.319375 6.67 2.63875 6.34 1.9375 6 C-0.49109689 4.74653064 -1.0046023 3.48849426 -2 1 C-1.34 0.67 -0.68 0.34 0 0 Z " fill="#DCA966" transform="translate(93,166)"/>
<path d="M0 0 C0.99 0 1.98 0 3 0 C3.28875 0.639375 3.5775 1.27875 3.875 1.9375 C4.82823451 4.15206079 4.82823451 4.15206079 7 5 C7 5.66 7 6.32 7 7 C7.66 7.33 8.32 7.66 9 8 C9 9.32 9 10.64 9 12 C8.01 12 7.02 12 6 12 C5.67 10.35 5.34 8.7 5 7 C4.01 7 3.02 7 2 7 C0 4 0 4 -1 2 C-0.67 1.34 -0.34 0.68 0 0 Z " fill="#F5E095" transform="translate(99,131)"/>
<path d="M0 0 C4.62 0 9.24 0 14 0 C13.34 1.32 12.68 2.64 12 4 C7.53160785 4.21278058 4.17737474 3.59138085 0 2 C0 1.34 0 0.68 0 0 Z " fill="#FDCF83" transform="translate(145,306)"/>
<path d="M0 0 C0.556875 0.185625 1.11375 0.37125 1.6875 0.5625 C4.399133 1.07551165 6.34371039 0.6640724 9 0 C4.25953605 3.95038663 -0.78644166 7 -7 7 C-7 6.01 -7 5.02 -7 4 C-5.35 4 -3.7 4 -2 4 C-1.34 2.68 -0.68 1.36 0 0 Z " fill="#B6814A" transform="translate(156,200)"/>
<path d="M0 0 C1.1055189 0.93590504 2.20935453 1.87379858 3.3125 2.8125 C3.92738281 3.33457031 4.54226562 3.85664063 5.17578125 4.39453125 C5.77777344 4.92433594 6.37976563 5.45414063 7 6 C7.57105469 6.49886719 8.14210937 6.99773437 8.73046875 7.51171875 C10 9 10 9 10 12 C9.01 12.33 8.02 12.66 7 13 C4 8.25 4 8.25 4 6 C3.34 6 2.68 6 2 6 C2 5.34 2 4.68 2 4 C1.01 4.33 0.02 4.66 -1 5 C-0.67 3.35 -0.34 1.7 0 0 Z " fill="#F1D999" transform="translate(120,131)"/>
<path d="M0 0 C0.33 0 0.66 0 1 0 C1.02701408 2.10409639 1.04640223 4.20829178 1.0625 6.3125 C1.07410156 7.48425781 1.08570313 8.65601562 1.09765625 9.86328125 C1 13 1 13 0 16 C-0.66 16 -1.32 16 -2 16 C-2.05449838 14.27119018 -2.09301688 12.54187288 -2.125 10.8125 C-2.14820313 9.84957031 -2.17140625 8.88664062 -2.1953125 7.89453125 C-1.9913544 4.87187222 -1.26874632 2.73230015 0 0 Z " fill="#FEF3AF" transform="translate(285,116)"/>
<path d="M0 0 C0 3.55097682 -0.54182992 5.75225754 -2 9 C-5.125 11.375 -5.125 11.375 -8 13 C-7.48118887 8.8275894 -6.28848726 6.74583179 -3.4375 3.6875 C-2.79683594 2.99011719 -2.15617187 2.29273438 -1.49609375 1.57421875 C-1.00238281 1.05472656 -0.50867188 0.53523437 0 0 Z " fill="#B88C5B" transform="translate(101,221)"/>
<path d="M0 0 C-0.99 1.485 -0.99 1.485 -2 3 C-2 2.34 -2 1.68 -2 1 C-2.495 1.33 -2.99 1.66 -3.5 2 C-6.02933164 3.01173266 -7.44848604 3.1062975 -10.125 3.0625 C-13.7949035 2.70512683 -13.7949035 2.70512683 -16 4 C-16.99 3.01 -17.98 2.02 -19 1 C-12.62694402 0.25492456 -6.41688675 -0.10349817 0 0 Z " fill="#FCDE95" transform="translate(226,171)"/>
<path d="M0 0 C0.33 0 0.66 0 1 0 C1.66 8.25 2.32 16.5 3 25 C2.01 25 1.02 25 0 25 C0 16.75 0 8.5 0 0 Z " fill="#FCC97C" transform="translate(69,98)"/>
<path d="M0 0 C0.66 0.33 1.32 0.66 2 1 C0.71034824 2.37562854 -0.62689293 3.70766393 -2 5 C-2.66 5 -3.32 5 -4 5 C-4 5.66 -4 6.32 -4 7 C-5.4609375 8.2890625 -5.4609375 8.2890625 -7.375 9.625 C-8.00148438 10.07101563 -8.62796875 10.51703125 -9.2734375 10.9765625 C-11 12 -11 12 -13 12 C-13 11.34 -13 10.68 -13 10 C-11.42578125 8.6328125 -11.42578125 8.6328125 -9.3125 7.125 C-8.58675781 6.5990625 -7.86101562 6.073125 -7.11328125 5.53125 C-6.41589844 5.0259375 -5.71851562 4.520625 -5 4 C-3.32655239 2.67518731 -1.65651812 1.34592097 0 0 Z " fill="#FEEFA6" transform="translate(127,200)"/>
<path d="M0 0 C0.33 0 0.66 0 1 0 C3.57067603 11.40737489 3.57067603 11.40737489 3 17 C2.01 17.99 1.02 18.98 0 20 C0 13.4 0 6.8 0 0 Z " fill="#AE8544" transform="translate(69,132)"/>
<path d="M0 0 C1.49808853 2.99617705 0.34012735 4.75009602 -0.6875 7.875 C-1.02136719 8.92429687 -1.35523437 9.97359375 -1.69921875 11.0546875 C-3.05547711 14.12561483 -4.48918378 15.81162544 -7 18 C-6.71517632 16.58194169 -6.42181856 15.16559621 -6.125 13.75 C-5.96257812 12.96109375 -5.80015625 12.1721875 -5.6328125 11.359375 C-5.00849925 9.03168856 -4.15161458 7.10968048 -3 5 C-2.34 5 -1.68 5 -1 5 C-0.67 3.35 -0.34 1.7 0 0 Z " fill="#E4C476" transform="translate(92,275)"/>
<path d="M0 0 C-1.22976562 0.70576172 -1.22976562 0.70576172 -2.484375 1.42578125 C-4.10085937 2.35970703 -4.10085937 2.35970703 -5.75 3.3125 C-6.81734375 3.92738281 -7.8846875 4.54226562 -8.984375 5.17578125 C-11.45605163 6.67095351 -13.73560384 8.21376516 -16 10 C-16 7.1875 -16 7.1875 -15 4 C-12.47557703 2.52693854 -9.78870544 1.82789693 -7 1 C-6.236875 0.5875 -5.47375 0.175 -4.6875 -0.25 C-3 -1 -3 -1 0 0 Z " fill="#AA7141" transform="translate(121,197)"/>
<path d="M0 0 C0.33 0.99 0.66 1.98 1 3 C0.67 3.66 0.34 4.32 0 5 C-0.66 5 -1.32 5 -2 5 C-2 5.66 -2 6.32 -2 7 C-3.65 7.33 -5.3 7.66 -7 8 C-6.875 5.6875 -6.875 5.6875 -6 3 C-2.9375 1.1875 -2.9375 1.1875 0 0 Z " fill="#F7E2A0" transform="translate(263,166)"/>
<path d="M0 0 C1.13015603 4.52062411 0.60721577 6.09808608 -0.8125 10.4375 C-1.16957031 11.54996094 -1.52664063 12.66242188 -1.89453125 13.80859375 C-2.85369956 16.57764147 -3.88142264 19.29213173 -5 22 C-5.33 22 -5.66 22 -6 22 C-6.26252625 17.66831683 -5.29243536 14.1196377 -4 10 C-3.34 10 -2.68 10 -2 10 C-1.34 6.7 -0.68 3.4 0 0 Z " fill="#98764C" transform="translate(287,126)"/>
<path d="M0 0 C0.99 0.495 0.99 0.495 2 1 C3.43508565 7.04124766 3.13327249 12.22761562 1 18 C0.67 18 0.34 18 0 18 C0 12.06 0 6.12 0 0 Z " fill="#F9E9A7" transform="translate(269,239)"/>
<path d="M0 0 C0.33 0.99 0.66 1.98 1 3 C-0.98 3.99 -0.98 3.99 -3 5 C-3 5.66 -3 6.32 -3 7 C-6.46153846 10 -6.46153846 10 -9 10 C-9 9.01 -9 8.02 -9 7 C-8.34 7 -7.68 7 -7 7 C-6.67 6.01 -6.34 5.02 -6 4 C-4.04402816 2.60287726 -2.04563599 1.26220093 0 0 Z " fill="#F6D895" transform="translate(136,212)"/>
<path d="M0 0 C0.66 0.33 1.32 0.66 2 1 C1.62488281 1.4125 1.24976562 1.825 0.86328125 2.25 C-2.95796035 6.56213158 -6.08513088 11.03440438 -9 16 C-10 13 -10 13 -8.92578125 10.625 C-8.39339844 9.75875 -7.86101562 8.8925 -7.3125 8 C-6.79300781 7.13375 -6.27351563 6.2675 -5.73828125 5.375 C-4.02125482 3.0290403 -2.40944922 1.59580079 0 0 Z " fill="#DCB660" transform="translate(86,198)"/>
<path d="M0 0 C1.98 0.99 1.98 0.99 4 2 C4 2.99 4 3.98 4 5 C4.99 5 5.98 5 7 5 C8.06775224 6.96466413 9.06553465 8.96855359 10 11 C9.67 11.66 9.34 12.32 9 13 C7.87187697 11.89902432 6.74762189 10.79408444 5.625 9.6875 C4.99851562 9.07261719 4.37203125 8.45773438 3.7265625 7.82421875 C1.21385547 5.16939028 0 3.72782094 0 0 Z " fill="#B68F64" transform="translate(97,133)"/>
<path d="M0 0 C0.99 0.33 1.98 0.66 3 1 C2.67 8.92 2.34 16.84 2 25 C1.67 25 1.34 25 1 25 C0.67 16.75 0.34 8.5 0 0 Z " fill="#D3A058" transform="translate(68,289)"/>
<path d="M0 0 C0.66 0 1.32 0 2 0 C2.89234179 2.48946307 3.08442558 3.72666635 2.29296875 6.2890625 C1.74576172 7.44535156 1.74576172 7.44535156 1.1875 8.625 C0.65189453 9.78902344 0.65189453 9.78902344 0.10546875 10.9765625 C-1 13 -1 13 -3 15 C-3.10067926 9.6639991 -3.01111938 6.51667907 0 2 C0 1.34 0 0.68 0 0 Z " fill="#DDBA7C" transform="translate(98,255)"/>
<path d="M0 0 C1.11375 0.4640625 1.11375 0.4640625 2.25 0.9375 C4.84465671 2.07111139 4.84465671 2.07111139 7.125 2.25 C9 3 9 3 10.75 6.0625 C11.36875 7.5165625 11.36875 7.5165625 12 9 C7.09198451 7.51272258 3.59508707 4.55364515 0 1 C0 0.67 0 0.34 0 0 Z " fill="#C19B69" transform="translate(120,158)"/>
<path d="M0 0 C0.66 0 1.32 0 2 0 C0.62960621 3.99698189 -1.0428771 6.95838787 -4 10 C-6.75 10.8125 -6.75 10.8125 -9 11 C-7.52005046 7.09831484 -5.48808251 6.09284951 -2 4 C-0.67206394 1.93299345 -0.67206394 1.93299345 0 0 Z " fill="#F8E4A5" transform="translate(273,154)"/>
<path d="M0 0 C1 2 1 2 0.4375 5.4375 C-1 9 -1 9 -4.125 10.9375 C-5.07375 11.288125 -6.0225 11.63875 -7 12 C-5.45052978 7.60983438 -3.33033996 3.33033996 0 0 Z " fill="#9F7A4F" transform="translate(263,136)"/>
<path d="M0 0 C10.93025271 0.21056529 10.93025271 0.21056529 14.1875 3.5625 C15.0846875 4.7690625 15.0846875 4.7690625 16 6 C14.08063787 5.57448104 12.16457126 5.13408062 10.25 4.6875 C9.18265625 4.44386719 8.1153125 4.20023438 7.015625 3.94921875 C4.07789099 3.0245175 2.30705738 1.99907642 0 0 Z " fill="#A67B4E" transform="translate(220,57)"/>
<path d="M0 0 C1.19625 0.165 2.3925 0.33 3.625 0.5 C8.2951926 1.07860793 12.47677264 1.50774245 17 0 C16.67 0.99 16.34 1.98 16 3 C10.72 3 5.44 3 0 3 C0 2.01 0 1.02 0 0 Z " fill="#F5DFA2" transform="translate(109,321)"/>
<path d="M0 0 C1.32 0.66 2.64 1.32 4 2 C3.566875 2.37125 3.13375 2.7425 2.6875 3.125 C0.79847568 5.05678692 0.79847568 5.05678692 -0.5625 8.125 C-2 11 -2 11 -4 12 C-3.45660208 7.43545749 -2.20536179 4.0271824 0 0 Z " fill="#F5E2A3" transform="translate(267,263)"/>
<path d="M0 0 C4.02065699 4.30784678 6.43823358 9.34698044 8 15 C7.67 15.99 7.34 16.98 7 18 C5.82333996 15.75474054 4.6585926 13.50455858 3.5 11.25 C3.16613281 10.61578125 2.83226562 9.9815625 2.48828125 9.328125 C0.72824467 5.87989007 0 3.95159931 0 0 Z " fill="#8F6540" transform="translate(278,208)"/>
<path d="M0 0 C3.53508103 0.29459009 4.76203444 0.74881413 7.25 3.375 C9 6 9 6 10 9 C6.04322598 7.32598022 3.15535787 4.86850715 0 2 C0 1.34 0 0.68 0 0 Z " fill="#F1D99B" transform="translate(256,187)"/>
<path d="M0 0 C0.66 0.33 1.32 0.66 2 1 C1.50628906 1.40992188 1.01257813 1.81984375 0.50390625 2.2421875 C-0.13675781 2.78101563 -0.77742188 3.31984375 -1.4375 3.875 C-2.07558594 4.40867188 -2.71367187 4.94234375 -3.37109375 5.4921875 C-5.10805004 6.9222757 -5.10805004 6.9222757 -6 9 C-5.34 9.33 -4.68 9.66 -4 10 C-5.65 9.67 -7.3 9.34 -9 9 C-8.63030147 6.34385824 -8.29524408 5.25241746 -6.22265625 3.48046875 C-5.50980469 3.05378906 -4.79695312 2.62710938 -4.0625 2.1875 C-3.35222656 1.74792969 -2.64195312 1.30835938 -1.91015625 0.85546875 C-1.27980469 0.57316406 -0.64945312 0.29085937 0 0 Z " fill="#876439" transform="translate(259,173)"/>
<path d="M0 0 C1.65 0.33 3.3 0.66 5 1 C4.67 2.32 4.34 3.64 4 5 C-0.455 5.495 -0.455 5.495 -5 6 C-1.25 3 -1.25 3 1 3 C0.67 2.01 0.34 1.02 0 0 Z " fill="#CEA44B" transform="translate(152,179)"/>
<path d="M0 0 C2.1491917 3.22378756 3.024994 5.98414648 4.125 9.6875 C4.47820312 10.86699219 4.83140625 12.04648438 5.1953125 13.26171875 C5.46085937 14.16535156 5.72640625 15.06898438 6 16 C5.34 16 4.68 16 4 16 C3.67 14.68 3.34 13.36 3 12 C2.34 12 1.68 12 1 12 C0.67 8.04 0.34 4.08 0 0 Z " fill="#DCAA68" transform="translate(88,127)"/>
<path d="M0 0 C0.66 0 1.32 0 2 0 C3.5912689 4.873261 4.21192221 8.80790596 4 14 C0.73262697 10.73262697 0.04327104 7.16831802 -0.125 2.625 C-0.08375 1.75875 -0.0425 0.8925 0 0 Z " fill="#976337" transform="translate(91,76)"/>
<path d="M0 0 C2.0625 0.4375 2.0625 0.4375 4 1 C2.71142957 3.87450327 1.38598062 5.92523424 -1 8 C-1.33 8 -1.66 8 -2 8 C-1.125 1.125 -1.125 1.125 0 0 Z " fill="#ECD696" transform="translate(260,276)"/>
<path d="M0 0 C0.66 0.33 1.32 0.66 2 1 C-1.96 6.94 -1.96 6.94 -6 13 C-7 9 -7 9 -5.6875 6.75 C-4.8521875 5.88375 -4.8521875 5.88375 -4 5 C-3.34 5 -2.68 5 -2 5 C-1.855625 4.360625 -1.71125 3.72125 -1.5625 3.0625 C-1 1 -1 1 0 0 Z " fill="#845A39" transform="translate(111,241)"/>
<path d="M0 0 C0.66 0.33 1.32 0.66 2 1 C1.67 1.66 1.34 2.32 1 3 C0.34 3 -0.32 3 -1 3 C-1.33 3.99 -1.66 4.98 -2 6 C-2.66 6 -3.32 6 -4 6 C-4.33 6.66 -4.66 7.32 -5 8 C-5.66 6.35 -6.32 4.7 -7 3 C-4.69631264 1.93347808 -2.35981813 0.93578995 0 0 Z " fill="#F5E0A1" transform="translate(124,223)"/>
<path d="M0 0 C-1.13304992 3.39914975 -2.12518475 4.05254451 -5 6 C-5.66 5.67 -6.32 5.34 -7 5 C-6.34 4.34 -5.68 3.68 -5 3 C-7.64 3.33 -10.28 3.66 -13 4 C-12 2 -12 2 -9.3125 0.875 C-6.0420565 0.01110926 -3.36293818 -0.16013991 0 0 Z " fill="#865729" transform="translate(134,192)"/>
<path d="M0 0 C2.96175123 0.61277612 4.38058783 1.25372522 7 3 C7.1875 5.625 7.1875 5.625 7 8 C6.67 7.34 6.34 6.68 6 6 C4.02111039 5.27306096 2.02045442 4.60183749 0 4 C0 2.68 0 1.36 0 0 Z " fill="#F2CE8E" transform="translate(135,146)"/>
<path d="M0 0 C5.65394631 -0.34615998 9.03006806 0.56574762 14 3 C13.67 3.66 13.34 4.32 13 5 C12.34 4.690625 11.68 4.38125 11 4.0625 C7.29523985 2.75039745 3.90736009 2.39735865 0 2 C0 1.34 0 0.68 0 0 Z " fill="#FAE09A" transform="translate(227,41)"/>
<path d="M0 0 C6.27 0 12.54 0 19 0 C18.67 0.66 18.34 1.32 18 2 C11.66666667 2 5.33333333 2 -1 2 C-0.67 1.34 -0.34 0.68 0 0 Z " fill="#FAE5A4" transform="translate(104,38)"/>
<path d="M0 0 C0.99 0.66 1.98 1.32 3 2 C2.1875 4.9375 2.1875 4.9375 1 8 C0.01 8.33 -0.98 8.66 -2 9 C-2.25 3.375 -2.25 3.375 0 0 Z " fill="#936428" transform="translate(90,230)"/>
<path d="M0 0 C0.68359375 1.734375 0.68359375 1.734375 1 4 C-0.21484375 6.140625 -0.21484375 6.140625 -1.9375 8.25 C-2.50339844 8.95640625 -3.06929688 9.6628125 -3.65234375 10.390625 C-4.31943359 11.18726563 -4.31943359 11.18726563 -5 12 C-5.66 11.67 -6.32 11.34 -7 11 C-6.6875 9.0625 -6.6875 9.0625 -6 7 C-5.01 6.67 -4.02 6.34 -3 6 C-1.29144978 2.99992729 -1.29144978 2.99992729 0 0 Z " fill="#DCAC68" transform="translate(98,209)"/>
<path d="M0 0 C-1.5830577 4.2742558 -4.50568404 6.26531794 -8 9 C-8.66 8.67 -9.32 8.34 -10 8 C-9.04578192 6.85073734 -8.08647955 5.70569459 -7.125 4.5625 C-6.59132812 3.92441406 -6.05765625 3.28632813 -5.5078125 2.62890625 C-3.68057607 0.65492285 -2.70796331 0 0 0 Z " fill="#E7CC94" transform="translate(262,145)"/>
<path d="M0 0 C0.66 0 1.32 0 2 0 C1.85691406 0.69480469 1.71382813 1.38960938 1.56640625 2.10546875 C0.96733421 5.16693345 0.44485302 8.23455833 -0.0625 11.3125 C-0.23910156 12.38113281 -0.41570312 13.44976562 -0.59765625 14.55078125 C-0.73042969 15.35902344 -0.86320312 16.16726563 -1 17 C-1.33 17 -1.66 17 -2 17 C-1.85941524 14.54126232 -1.71277001 12.08314825 -1.5625 9.625 C-1.52318359 8.92632812 -1.48386719 8.22765625 -1.44335938 7.5078125 C-1.11328125 2.2265625 -1.11328125 2.2265625 0 0 Z " fill="#F3C570" transform="translate(71,271)"/>
<path d="M0 0 C5.19209404 -0.21192221 9.126739 0.4087311 14 2 C14 2.33 14 2.66 14 3 C12.41705218 3.05437607 10.83355744 3.09296271 9.25 3.125 C8.36828125 3.14820313 7.4865625 3.17140625 6.578125 3.1953125 C3.8864142 2.99139502 2.30095026 2.36551721 0 1 C0 0.67 0 0.34 0 0 Z " fill="#DCAC73" transform="translate(178,167)"/>
<path d="M0 0 C4.18423892 3.50897269 8.19588166 7.08060535 12 11 C9.6875 11.3125 9.6875 11.3125 7 11 C5.4375 8.75 5.4375 8.75 4 6 C3.278125 5.278125 2.55625 4.55625 1.8125 3.8125 C1.214375 3.214375 0.61625 2.61625 0 2 C0 1.34 0 0.68 0 0 Z " fill="#9C613A" transform="translate(100,149)"/>
<path d="M0 0 C-0.33 0.99 -0.66 1.98 -1 3 C-4.63 3.66 -8.26 4.32 -12 5 C-8.90088062 0.35132094 -5.42435126 -0.30996293 0 0 Z " fill="#F9DE96" transform="translate(137,196)"/>
<path d="M0 0 C0 0.99 0 1.98 0 3 C-2.3125 3.25 -2.3125 3.25 -5 3 C-6.8125 1 -6.8125 1 -8 -1 C-4.37673261 -2.2077558 -3.35853631 -1.54311128 0 0 Z " fill="#99702F" transform="translate(136,169)"/>
<path d="M0 0 C0.99 0.495 0.99 0.495 2 1 C2.4140625 3.06640625 2.4140625 3.06640625 2.625 5.5625 C2.69976562 6.38878906 2.77453125 7.21507813 2.8515625 8.06640625 C2.92503906 9.02353516 2.92503906 9.02353516 3 10 C2.01 10.33 1.02 10.66 0 11 C0 7.37 0 3.74 0 0 Z " fill="#E2BE70" transform="translate(85,58)"/>
<path d="M0 0 C0.33 1.32 0.66 2.64 1 4 C0.01 4.33 -0.98 4.66 -2 5 C-2.12375 6.11375 -2.2475 7.2275 -2.375 8.375 C-3 12 -3 12 -5 14 C-4.43981302 9.40646673 -3.42668586 3.42668586 0 0 Z " fill="#DBB05F" transform="translate(75,214)"/>
<path d="M0 0 C0.99 0 1.98 0 3 0 C2.44687265 4.02992782 1.8441938 8.02022924 1 12 C0.67 12 0.34 12 0 12 C0 8.04 0 4.08 0 0 Z " fill="#B38341" transform="translate(69,217)"/>
<path d="M0 0 C2.64 0 5.28 0 8 0 C2.85714286 4.42857143 2.85714286 4.42857143 -1 5 C-1.33 4.34 -1.66 3.68 -2 3 C-1.34 3 -0.68 3 0 3 C0 2.01 0 1.02 0 0 Z " fill="#EECC8B" transform="translate(216,304)"/>
<path d="M0 0 C0.66 0 1.32 0 2 0 C3.0536628 3.16098841 3.21514551 4.00887259 2 7 C0.68 7.99 -0.64 8.98 -2 10 C-1.34 6.7 -0.68 3.4 0 0 Z " fill="#EDCE8B" transform="translate(102,247)"/>
<path d="M0 0 C1.65 0.33 3.3 0.66 5 1 C4.67 2.98 4.34 4.96 4 7 C2.35 7.33 0.7 7.66 -1 8 C0.32 6.35 1.64 4.7 3 3 C2.01 2.01 1.02 1.02 0 0 Z " fill="#975C2F" transform="translate(100,177)"/>
<path d="M0 0 C3.99996286 1.33332095 4.83782337 3.4957827 7 7 C6.67 7.66 6.34 8.32 6 9 C1.2 5.67692308 1.2 5.67692308 0.1875 2.25 C0.125625 1.5075 0.06375 0.765 0 0 Z " fill="#AB6D40" transform="translate(93,140)"/>
<path d="M0 0 C0.66 0.66 1.32 1.32 2 2 C1.625 5.625 1.625 5.625 1 9 C0.01 9.33 -0.98 9.66 -2 10 C-1.125 2.25 -1.125 2.25 0 0 Z " fill="#FCECAC" transform="translate(268,126)"/>
<path d="M0 0 C3.3 0 6.6 0 10 0 C7.73038808 2.26961192 6.06630664 3.1025444 3 4 C2.01 3.34 1.02 2.68 0 2 C0 1.34 0 0.68 0 0 Z " fill="#EDCD83" transform="translate(89,306)"/>
<path d="M0 0 C-2.57642867 2.11635213 -4.62505968 3.67339287 -8 4 C-8.99 3.34 -9.98 2.68 -11 2 C-9.73392393 1.46770674 -8.46189588 0.94955456 -7.1875 0.4375 C-6.47980469 0.14746094 -5.77210938 -0.14257812 -5.04296875 -0.44140625 C-3 -1 -3 -1 0 0 Z " fill="#FBE09C" transform="translate(238,301)"/>
<path d="M0 0 C4.95 0.99 4.95 0.99 10 2 C8 4 8 4 6.0546875 4.1953125 C4.03645833 4.13020833 2.01822917 4.06510417 0 4 C0 2.68 0 1.36 0 0 Z " fill="#D6A55C" transform="translate(69,319)"/>
<path d="M0 0 C0.66 0 1.32 0 2 0 C1.67 1.98 1.34 3.96 1 6 C-0.98 6 -2.96 6 -5 6 C-3.38405168 3.95880212 -1.7143618 1.95927063 0 0 Z " fill="#FAEBA8" transform="translate(278,278)"/>
<path d="M0 0 C0.66 0 1.32 0 2 0 C0.8905928 3.48670834 -0.26337666 6.77484237 -2 10 C-2.66 10 -3.32 10 -4 10 C-3.52449439 8.51965236 -3.04448784 7.04074979 -2.5625 5.5625 C-2.29566406 4.73878906 -2.02882813 3.91507812 -1.75390625 3.06640625 C-1 1 -1 1 0 0 Z " fill="#8F643B" transform="translate(102,254)"/>
<path d="M0 0 C0.33 0 0.66 0 1 0 C1.33 2.64 1.66 5.28 2 8 C1.34 8 0.68 8 0 8 C-0.33 8.66 -0.66 9.32 -1 10 C-1.02689216 8.52093108 -1.04634621 7.04172517 -1.0625 5.5625 C-1.07410156 4.73878906 -1.08570312 3.91507813 -1.09765625 3.06640625 C-1 1 -1 1 0 0 Z " fill="#EDBC71" transform="translate(70,228)"/>
<path d="M0 0 C3.21043882 1.38188453 5.04936365 2.92421903 7.25 5.625 C8.03117187 6.57246094 8.03117187 6.57246094 8.828125 7.5390625 C9.40820312 8.26222656 9.40820312 8.26222656 10 9 C7.27425729 8.62669176 6.19177915 8.20805399 4.296875 6.15234375 C3.53117188 5.05599609 3.53117188 5.05599609 2.75 3.9375 C2.22921875 3.20402344 1.7084375 2.47054687 1.171875 1.71484375 C0.78515625 1.14894531 0.3984375 0.58304688 0 0 Z " fill="#936B3E" transform="translate(248,205)"/>
<path d="M0 0 C3.78383679 0.92493788 5.56693694 1.39371171 7.875 4.625 C8.431875 5.800625 8.431875 5.800625 9 7 C4.58110387 5.64978174 2.65654657 3.73884332 0 0 Z " fill="#905832" transform="translate(91,170)"/>
<path d="M0 0 C0.515625 0.268125 1.03125 0.53625 1.5625 0.8125 C4.66401415 2.32349407 7.82262806 3.65572726 11 5 C11 5.33 11 5.66 11 6 C8.3125 6.3125 8.3125 6.3125 5 6 C2.125 3.5625 2.125 3.5625 0 1 C0 0.67 0 0.34 0 0 Z " fill="#DAB662" transform="translate(135,168)"/>
<path d="M0 0 C4.455 1.98 4.455 1.98 9 4 C4.59232396 5.10191901 3.1077065 4.58706842 -1 3 C-0.67 2.01 -0.34 1.02 0 0 Z " fill="#EAB578" transform="translate(152,156)"/>
<path d="M0 0 C1.79068573 2.6860286 2.66055791 4.6626589 3.625 7.6875 C3.88539062 8.49574219 4.14578125 9.30398437 4.4140625 10.13671875 C4.60742188 10.75160156 4.80078125 11.36648437 5 12 C4.01 11.67 3.02 11.34 2 11 C0.60955102 7.12137916 0 4.13537997 0 0 Z " fill="#E2BD7D" transform="translate(91,82)"/>
<path d="M0 0 C3.34249629 0.59687434 5.46436342 1.73603877 8 4 C8 4.66 8 5.32 8 6 C6.35 6 4.7 6 3 6 C3.33 5.01 3.66 4.02 4 3 C3.01 3 2.02 3 1 3 C0.67 2.01 0.34 1.02 0 0 Z " fill="#E9D093" transform="translate(258,55)"/>
<path d="M0 0 C-2.39509338 2.89932357 -4.31245243 3.50168276 -8 4 C-7.1875 2.0625 -7.1875 2.0625 -6 0 C-3 -1 -3 -1 0 0 Z " fill="#FDE298" transform="translate(227,305)"/>
<path d="M0 0 C0.66 0 1.32 0 2 0 C3.7143618 1.95927063 5.38405168 3.95880212 7 6 C6.01 6.495 6.01 6.495 5 7 C4.01 6.67 3.02 6.34 2 6 C0.8125 2.9375 0.8125 2.9375 0 0 Z " fill="#F6E29F" transform="translate(257,211)"/>
<path d="M0 0 C0.66 0.33 1.32 0.66 2 1 C1.67 1.99 1.34 2.98 1 4 C-0.98 4.33 -2.96 4.66 -5 5 C-5 4.01 -5 3.02 -5 2 C-3.35 2 -1.7 2 0 2 C0 1.34 0 0.68 0 0 Z " fill="#C99862" transform="translate(154,202)"/>
<path d="M0 0 C1.98 1.65 3.96 3.3 6 5 C4.68 5.33 3.36 5.66 2 6 C2 5.34 2 4.68 2 4 C1.01 4.33 0.02 4.66 -1 5 C-0.67 3.35 -0.34 1.7 0 0 Z " fill="#E7CC94" transform="translate(120,131)"/>
<path d="M0 0 C1.40907283 2.81814566 0.50872691 4.17277204 -0.4375 7.125 C-0.72496094 8.03507812 -1.01242188 8.94515625 -1.30859375 9.8828125 C-1.53675781 10.58148438 -1.76492187 11.28015625 -2 12 C-3.0625 10.1875 -3.0625 10.1875 -4 8 C-3.67 7.01 -3.34 6.02 -3 5 C-2.34 5 -1.68 5 -1 5 C-0.67 3.35 -0.34 1.7 0 0 Z " fill="#DAB273" transform="translate(92,275)"/>
<path d="M0 0 C0 3.90838866 -1.50567876 5.11594107 -4 8 C-4.99 7.67 -5.98 7.34 -7 7 C-6.34 6.67 -5.68 6.34 -5 6 C-4.67 5.01 -4.34 4.02 -4 3 C-1.9375 1.3125 -1.9375 1.3125 0 0 Z " fill="#EED69A" transform="translate(113,210)"/>
<path d="M0 0 C-6.75 4 -6.75 4 -9 4 C-8 1 -8 1 -6.1875 -0.25 C-3.66056586 -1.11637742 -2.47778006 -0.88492145 0 0 Z " fill="#F1D996" transform="translate(258,175)"/>
<path d="M0 0 C1.9451 2.91765 2.45276317 4.62537285 3 8 C2.01 8.33 1.02 8.66 0 9 C0 6.03 0 3.06 0 0 Z " fill="#ECBC6F" transform="translate(69,123)"/>
<path d="M0 0 C0.99 0.33 1.98 0.66 3 1 C2.67 2.32 2.34 3.64 2 5 C0.35 5 -1.3 5 -3 5 C-2.01 3.35 -1.02 1.7 0 0 Z " fill="#FBE9A2" transform="translate(256,303)"/>
<path d="M0 0 C-4.455 1.485 -4.455 1.485 -9 3 C-8 0 -8 0 -6.1875 -1.3125 C-4 -2 -4 -2 0 0 Z " fill="#C19056" transform="translate(128,193)"/>
<path d="M0 0 C0.99 0.33 1.98 0.66 3 1 C4.1875 4.0625 4.1875 4.0625 5 7 C2.5 5.75 2.5 5.75 0 4 C0 2.68 0 1.36 0 0 Z " fill="#F5DF9F" transform="translate(120,154)"/>
</svg>
